<?xml version="1.0" encoding="UTF-8"?>
<svg width="110px" height="21px" viewBox="0 0 110 21" version="1.1" xmlns="http://www.w3.org/2000/svg" xmlns:xlink="http://www.w3.org/1999/xlink">
    <title>ABI logo color</title>
    <defs>
        <polygon id="path-1" points="0 0 14.070676 0 14.070676 14.7842241 0 14.7842241"></polygon>
    </defs>
    <g id="vd-v3" stroke="none" stroke-width="1" fill="none" fill-rule="evenodd">
        <g id="mbat-login" transform="translate(-630.000000, -122.000000)">
            <g id="Group-24" transform="translate(630.000000, 122.000000)">
                <path d="M52.3868634,19.6409576 L46.9013932,19.6409576 C46.8750038,19.5503324 46.9417047,19.5022073 46.9759902,19.4442905 C47.4568181,18.6501222 47.7086606,17.738037 47.7034658,16.8090767 C47.6899594,14.0976127 47.6899594,11.3857321 47.7034658,8.67364307 C47.7076217,7.75384949 47.4622207,6.85030594 46.9934446,6.06009596 C46.9547955,5.99301249 46.8905881,5.93488736 46.891207,5.84676218 C46.9581201,5.79863708 47.0316781,5.82238713 47.0987945,5.82238713 L51.3171562,5.82238713 C51.3528962,5.8246788 51.3886362,5.8246788 51.4243762,5.82238713 C51.5590247,5.8061371 51.5908167,5.87301224 51.5889466,5.99676249 C51.5833362,6.37197161 51.5889466,6.75113906 51.5889466,7.12801485 L51.5889466,7.41676545 C51.7080107,7.36843202 51.8148152,7.29322353 51.9006328,7.19738999 C52.6694589,6.54759697 53.5658685,6.06697097 54.5318881,5.78676206 C55.6745299,5.45551137 56.8876128,5.45905304 58.0283844,5.79676208 C59.3002721,6.13592945 60.2654605,7.17655662 60.5106537,8.47301765 C60.6193283,8.96531034 60.6696137,9.46885306 60.6608864,9.97302078 C60.6608864,12.2805256 60.6714838,14.5886554 60.6571462,16.8959519 C60.6567306,17.7703287 60.8902875,18.6286638 61.3335054,19.3817904 C61.3734012,19.4517905 61.4157905,19.5205407 61.4581799,19.5905408 C61.4612967,19.5982492 61.4633746,19.6063742 61.4644136,19.6147075 C61.2703369,19.677416 56.805951,19.703041 55.9787357,19.6478326 C55.9531774,19.5649158 56.021125,19.5172073 56.0547871,19.4605405 C56.5349917,18.6659556 56.7864186,17.753662 56.7810161,16.8247017 C56.764185,14.9496978 56.7760291,13.0717772 56.7754057,11.1948983 C56.7841329,10.8984394 56.7666785,10.6017721 56.7230424,10.3086465 C56.6297443,9.31072773 55.7902694,8.55051781 54.7905877,8.55864283 C53.6388031,8.47218432 52.5069665,8.89510186 51.6924264,9.71614524 C51.6105568,9.79822875 51.5712844,9.91364565 51.5858297,10.0286459 L51.5858297,13.3692779 C51.5858297,14.5274053 51.6001673,15.6861577 51.5814661,16.8440768 C51.574609,17.7369953 51.8116984,18.6149138 52.2671759,19.3824154 C52.3278508,19.4572072 52.3689934,19.5461657 52.3868634,19.6409576" id="Fill-8" fill="#431512"></path>
                <path d="M93.8613313,5.83559549 L99.2117374,5.83559549 C99.1032705,6.0947627 99.0430112,6.37142994 99.0334528,6.65247219 C99.0430112,7.14705656 99.1433742,7.63559924 99.329347,8.0937252 C100.077602,10.0426876 100.830844,11.9908166 101.589072,13.9374874 C101.776292,14.4137384 101.960187,14.889156 102.145121,15.365407 C102.156757,15.4226988 102.186471,15.4745739 102.229899,15.5129073 C102.279977,15.4924906 102.279977,15.4329072 102.292236,15.3929071 C103.203399,12.9587353 104.1129,10.5239386 105.020738,8.08810018 C105.144997,7.75143282 105.233723,7.40289042 105.285671,7.04788968 C105.352995,6.64893052 105.303749,6.239138 105.144166,5.86726222 C105.362969,5.80497043 108.478585,5.78497039 109.247827,5.83434549 C109.278164,5.87184557 109.25406,5.90059563 109.230996,5.92726235 C108.673493,6.60893044 108.229236,7.37601537 107.91568,8.19935042 C106.651065,11.3426903 105.391229,14.4883219 104.136172,17.6368701 C103.90594,18.2112463 103.740746,18.8099975 103.643708,19.4216655 C103.599449,19.700416 103.640176,19.656666 103.363814,19.657291 C102.315925,19.6594409 101.268035,19.6594409 100.220354,19.657291 C99.9161483,19.657291 99.9801479,19.699166 99.859837,19.4074988 C98.3473275,15.7360328 96.835857,12.0641501 95.3262566,8.39185082 C95.0216353,7.60434918 94.6095861,6.86330597 94.1019531,6.18934623 C94.0190445,6.08413768 93.9355126,5.97913746 93.8526041,5.87684558 C93.8513573,5.86788722 93.8569677,5.85684554 93.8613313,5.83559549" id="Fill-10" fill="#431512"></path>
                <path d="M38.906641,0.0356042408 L45.1015091,0.0356042408 C45.1173012,0.122479422 45.0541328,0.17102119 45.0192239,0.229979646 C44.4719029,1.13102319 44.1830736,2.16623368 44.1845281,3.22123588 C44.1969956,7.63770341 44.1969956,12.0556293 44.1845281,16.4748052 C44.1828658,17.5210573 44.4702405,18.5468928 45.0148603,19.4391863 C45.0466523,19.4929364 45.0774053,19.5466866 45.1102363,19.6016867 C45.1102363,19.6073117 45.1064961,19.6185617 45.1004701,19.6408534 L38.9172384,19.6408534 C38.88981,19.5535616 38.9590043,19.5066865 38.9932898,19.4491864 C39.4005599,18.7812683 39.6715191,18.0391834 39.7899599,17.2654318 C39.8115701,17.1054315 39.8213363,16.9437645 39.8192584,16.7823058 C39.8192584,12.1491711 39.8192584,7.51561982 39.8192584,2.88248517 C39.7887131,1.96248326 39.5162993,1.06706472 39.0294454,0.286854764 C38.9671082,0.215396282 38.9247189,0.128729435 38.906641,0.0356042408" id="Fill-12" fill="#431512"></path>
                <path d="M32.3131471,13.9192998 C32.3214587,14.4776343 32.1957453,15.0297188 31.9466041,15.5293032 C31.5968921,16.1653462 31.0165323,16.6422222 30.3258356,16.8615976 C29.6380479,17.0940981 28.9172216,17.21264 28.191616,17.2124317 C27.5742694,17.2280567 26.9567151,17.2172234 26.3393685,17.2172234 C26.1056038,17.2172234 26.1033181,17.2172234 26.1033181,16.9861812 L26.1033181,13.9178415 L26.1033181,10.9034602 C26.1033181,10.6697097 26.1033181,10.6655431 26.3144336,10.620543 C26.9966109,10.4761677 27.6821129,10.3478341 28.3753031,10.2667922 C28.4634064,10.2511672 28.5535876,10.2511672 28.6416909,10.2667922 C29.3691666,10.4190842 30.0696295,10.6801264 30.7200148,11.0411688 C31.7654105,11.6070033 32.3875362,12.7307557 32.3131471,13.9199248 L32.3131471,13.9192998 Z M26.0920974,5.76803285 L26.0920974,5.25678178 L26.0920974,2.70052646 C26.0920974,2.4651093 26.0920974,2.46740097 26.320044,2.45052594 C27.0157277,2.39302582 27.7149438,2.39490082 28.4102119,2.45635928 C29.0190391,2.4971927 29.610204,2.67948475 30.1369537,2.98865206 C30.8937279,3.43698633 31.294972,4.30782147 31.1443237,5.17615662 C31.0707657,5.87511641 30.6861449,6.50303438 30.0976813,6.88491018 C29.6893723,7.16116075 29.2388818,7.36886952 28.7636641,7.49991146 C27.9364488,7.72699526 27.0980128,7.91095398 26.251473,8.05053761 C26.1045649,8.07741266 26.0937598,8.06741264 26.0931364,7.89366228 C26.0908507,7.18782747 26.0920974,6.47678433 26.0920974,5.76803285 L26.0920974,5.76803285 Z M10.8375492,11.3472111 C9.54779152,11.7142952 8.28255316,12.1630462 7.04931458,12.6909639 C6.54188937,12.9163811 6.0677107,13.2107567 5.64070054,13.5661741 C5.589584,13.5755491 5.56277898,13.5590907 5.5781555,13.503674 L8.74800462,4.2536547 L8.80182244,4.2536547 L11.2327674,11.2065858 C11.1087162,11.2726277 10.9755223,11.3199194 10.8375492,11.3472111 L10.8375492,11.3472111 Z M35.2909975,10.2505422 C34.6237811,9.68991602 33.8580719,9.25908179 33.0331423,8.97991454 C32.7507546,8.87741433 32.464211,8.78741414 32.1448365,8.68053892 C32.2632773,8.6261638 32.3513806,8.58491372 32.4396917,8.54553864 C32.9903374,8.30741314 33.5129314,8.00928752 33.9981229,7.65616178 C35.2880884,6.77428495 35.922266,5.20074 35.6051772,3.66802848 C35.4312563,2.55615116 34.7470011,1.59052415 33.7568778,1.05989804 C33.1239469,0.703438965 32.4392761,0.448646768 31.7280081,0.304271467 C30.6202752,0.0811460024 29.4913476,-0.0194792072 28.3615889,0.00364584093 C25.9343842,-0.00114583572 23.5071795,-0.00114583572 21.0801826,0.00364584093 L20.8158727,0.00364584093 C20.8310414,0.101146044 20.8744697,0.191979567 20.9405472,0.264896385 C21.4820501,1.08635643 21.7623599,2.05344178 21.7440743,3.0382355 C21.7272432,4.878656 21.7388795,6.71990983 21.7388795,8.56053867 C21.7388795,8.6230388 21.7359705,8.68553893 21.7388795,8.74803906 C21.751347,8.81595587 21.706672,8.880956 21.6389321,8.89345603 C21.633114,8.89470603 21.6270881,8.89533103 21.6210621,8.89553937 C21.5682833,8.90428938 21.51592,8.91678941 21.4635567,8.92741443 C19.7361915,9.27741516 18.003216,9.59866583 16.2858248,9.99679166 C16.0508133,10.0511668 15.8145552,10.1024169 15.5801671,10.161792 C15.4648432,10.1909587 15.3881684,10.168667 15.3601166,10.0424168 C15.3501427,10.0080417 15.3380908,9.97408328 15.323961,9.94095821 C14.9582492,8.92949777 14.5923295,7.91741233 14.2262021,6.90553522 C13.4208048,4.68011392 12.6151998,2.45469261 11.8093869,0.229271311 C11.7271018,0.00239583832 11.7252316,0.00177083702 11.4889735,0.00114583572 L9.3127801,0.00114583572 L7.05554831,0.00114583572 C6.86853656,0.00114583572 6.85690027,0.00697918121 6.86853656,0.168646185 C6.89970518,0.959481166 6.76256324,1.74781614 6.46583793,2.481151 C4.66823946,7.49407811 2.87334227,12.5078386 1.08135415,17.522224 C0.83699213,18.2170171 0.497461913,18.8743102 0.0727374562,19.4753531 C0.0390753417,19.5224365 -0.0251320249,19.5622283 0.0104002071,19.6372284 C0.0185040495,19.6411868 0.0270234735,19.6441034 0.0359584792,19.6453534 C1.28270346,19.6474368 2.52757832,19.6503534 3.77058307,19.6534784 C3.88590698,19.6534784 3.93827027,19.6216034 3.91832235,19.4997281 C3.91229642,19.4461863 3.91001072,19.3924362 3.91146525,19.3386861 C3.84829684,18.176392 4.36756613,17.0588897 5.29597556,16.3599299 C5.80610204,15.9636791 6.36734508,15.6386784 6.96453592,15.3934696 C8.57325253,14.7399265 10.2135533,14.1676337 11.8792046,13.6786743 C12.0612294,13.6215909 12.0664242,13.6261742 12.1349952,13.8280496 C12.554317,15.0297188 12.9757169,16.2311796 13.3904673,17.4347238 C13.5855829,17.9668083 13.6863615,18.5286844 13.6884394,19.0955606 C13.6884394,19.2722277 13.6547773,19.449103 13.6346216,19.6372284 L19.1826367,19.6372284 C19.1876237,19.6134784 19.1938574,19.6022283 19.1901172,19.5972283 C19.1464811,19.5293115 19.1028451,19.4618114 19.0573389,19.3953529 C18.6696012,18.8557684 18.3520968,18.2691006 18.1116828,17.6490993 C17.7503345,16.6649306 17.3972979,15.6768035 17.0401055,14.6903431 L16.2864482,12.6080471 C16.3649931,12.583672 16.4310706,12.557422 16.5002649,12.541797 C18.147215,12.1567962 19.8041391,11.8267955 21.4654268,11.5061698 C21.738464,11.4536697 21.7397107,11.4561697 21.7397107,11.7290869 C21.7397107,13.3272153 21.7241264,14.9261769 21.7453211,16.5243053 C21.7606976,17.535349 21.4810111,18.5291011 20.9405472,19.3830612 C20.8769632,19.458478 20.8341583,19.5488949 20.8158727,19.6459784 L21.1082344,19.6459784 L27.7988913,19.6459784 C28.703197,19.6593118 29.6077105,19.6245201 30.5086915,19.5422282 C31.698294,19.4426447 32.8598448,19.1272273 33.9370324,18.6116013 C35.0476744,18.0982669 35.9289153,17.19014 36.4101589,16.062846 C36.6925466,15.3522195 36.8359223,14.5934679 36.8321821,13.8284663 C36.8984673,12.4609635 36.3295361,11.1397107 35.2909975,10.2505422 L35.2909975,10.2505422 Z" id="Fill-14" fill="#B31F24"></path>
                <path d="M74.5051375,14.9591353 C74.2757364,15.8158038 73.6565198,16.5139302 72.8344992,16.8422643 C72.1807893,17.1176815 71.479703,17.2626818 70.7705129,17.2691401 C70.0548813,17.2910152 69.3367562,17.2791402 68.6213324,17.2791402 C68.4224765,17.2791402 68.4191519,17.2753902 68.4185285,17.0672647 L68.4185285,13.8349663 L68.4185285,10.6562097 C68.4185285,10.3541257 68.4023208,10.3849591 68.6986306,10.3855841 C69.3612755,10.3855841 70.0245438,10.3755841 70.6865654,10.3962092 C71.4319111,10.4003758 72.1676985,10.5670428 72.8428109,10.8847518 C73.8073759,11.3301694 74.4706442,12.2472547 74.593033,13.3049652 C74.6796818,13.8562164 74.6497599,14.4195509 74.5051375,14.9585103 L74.5051375,14.9591353 Z M68.4185285,2.60431793 C68.4185285,2.4968177 68.3973339,2.38994248 68.5727093,2.39494249 C69.368756,2.37452578 70.1656338,2.39660916 70.9596026,2.46119263 C71.4048983,2.51140107 71.8381422,2.639943 72.2391785,2.84056842 C72.8448888,3.13765237 73.2770937,3.70161188 73.4073786,4.36473826 C73.5274817,4.91057273 73.5177155,5.47682391 73.3787034,6.01807504 C73.1696659,6.86786847 72.5036962,7.52891152 71.6538317,7.7299536 C71.3373663,7.82953714 71.0092646,7.88641226 70.6778382,7.89849562 C69.997531,7.91370399 69.3174316,7.91724566 68.6373323,7.920579 C68.4224765,7.920579 68.4197753,7.91370399 68.4197753,7.69370353 L68.4197753,5.16244826 C68.4189441,4.30952981 68.4185285,3.4568197 68.4185285,2.60431793 L68.4185285,2.60431793 Z M79.0576268,13.1247565 C78.9439652,11.9189207 78.3255797,10.8178767 77.3558199,10.0953752 C76.6104742,9.54870739 75.7766096,9.13516486 74.8910051,8.87224765 C74.7804604,8.85808095 74.6761494,8.81328919 74.5892928,8.74308071 C74.9662254,8.59162207 75.3338073,8.41828837 75.690792,8.22432963 C76.3779563,7.86662056 76.9576927,7.33182777 77.3701575,6.67474307 C77.7842846,5.93244986 77.9538419,5.07765641 77.8545179,4.23307132 C77.8044403,3.27161098 77.3923911,2.36535909 76.7012788,1.69681604 C76.1552045,1.18764831 75.5046114,0.804730843 74.7952135,0.574938698 C73.6625457,0.199937917 72.4756445,0.0155625324 71.2831329,0.0293125611 C68.7221109,0.0180625376 66.1608811,0.0218125454 63.600067,0.0205625428 C63.5377297,0.0205625428 63.4753925,0.00243750508 63.4161721,0.0493126027 C63.4030812,0.116812743 63.4541978,0.16306284 63.4834963,0.215146282 C63.5834437,0.395146657 63.6680146,0.583063715 63.7365855,0.77743912 C63.9703502,1.46660722 64.0833884,2.1914004 64.0707132,2.91931858 C64.0707132,7.5337032 64.0707132,12.1487128 64.0707132,16.7635141 C64.0707132,16.9610145 64.0707132,17.1587232 64.0551289,17.3560153 C64.0189733,18.0933085 63.8213642,18.81331 63.4766392,19.4653947 C63.4485874,19.5166448 63.3924839,19.5641449 63.4242759,19.6372701 C63.4916001,19.6594932 63.5630802,19.6649785 63.6331057,19.6541451 L70.5905661,19.6541451 C71.6293124,19.6726868 72.667851,19.5987283 73.6935065,19.4328947 C74.7303828,19.272061 75.7288177,18.9216436 76.6391493,18.3985175 C77.4942086,17.9114331 78.1786716,17.1714316 78.5988247,16.2797631 C79.0389256,15.2908027 79.1978856,14.1989254 79.0576268,13.1247565 L79.0576268,13.1247565 Z" id="Fill-16" fill="#431512"></path>
                <g id="Group-20" transform="translate(80.330691, 5.215776)">
                    <mask id="mask-2" fill="white">
                        <use xlink:href="#path-1"></use>
                    </mask>
                    <g id="Clip-19"></g>
                    <path d="M9.84154308,5.92033067 C9.48372727,5.91595566 9.12653483,5.92783068 8.76871902,5.92845568 L4.28854093,5.92845568 L4.0672437,5.92845568 C4.12355501,5.18303746 4.34609899,4.45949429 4.71804458,3.81157627 C5.10702901,3.16386659 5.76759606,2.72719901 6.5146041,2.62428213 C6.95595182,2.54553197 7.40872804,2.55594866 7.84591995,2.65469886 C8.49173385,2.80011583 9.05193792,3.1997 9.40081873,3.76345117 C9.76299814,4.36428576 9.96933444,5.04657885 10.0011264,5.74783031 C10.0111004,5.87408057 9.97515258,5.92158067 9.84154308,5.92033067 M13.7505042,4.52470276 C13.2171051,2.27386474 11.3839744,0.56698618 9.10596354,0.199068747 C7.98036061,-0.0307233983 6.82358906,-0.0619734634 5.6873888,0.107401889 C4.77103124,0.227610473 3.888128,0.532819442 3.09249691,1.00407042 C1.82123261,1.77386369 0.878277825,2.98678289 0.444202781,4.41032752 C-0.0738197593,6.03574757 -0.140105034,7.77200119 0.252411844,9.43200465 C0.482228502,10.5830487 1.02414699,11.6478426 1.81873912,12.5097194 C2.80387545,13.5295132 4.07991894,14.218473 5.47170192,14.4815985 C7.19013208,14.8655576 8.96986055,14.8843077 10.695979,14.5370153 C11.6989853,14.3438899 12.6654205,13.9928475 13.5593366,13.4972215 C13.8086856,13.3553462 13.7723222,13.4001379 13.6640632,13.1570124 C13.4269739,12.6251363 13.1882222,12.0936769 12.9476004,11.5628424 C12.8484842,11.3420086 12.7412641,11.1251332 12.6483816,10.901591 C12.6055767,10.7978408 12.5517589,10.7872158 12.4644867,10.8388826 C12.4333181,10.8563826 12.4021495,10.870341 12.367864,10.885966 C11.5817913,11.2772168 10.7454332,11.5572174 9.88247787,11.7178427 C8.85723792,11.9038848 7.80415399,11.8738847 6.79117369,11.6295092 C5.23108014,11.2951335 4.105685,9.92721401 4.07513975,8.32783568 C4.16926899,8.30366896 4.26693068,8.29741895 4.36313784,8.30908564 L10.219099,8.30908564 C11.1142619,8.31950233 12.0094248,8.27762724 12.8996007,8.18408538 C13.2293648,8.15304365 13.554973,8.09033519 13.8726852,7.99658499 C13.9705547,7.97595995 14.0389178,7.88720976 14.0341387,7.78720956 C14.1309692,6.69137394 14.0349698,5.58720497 13.7505042,4.52470276" id="Fill-18" fill="#431512" mask="url(#mask-2)"></path>
                </g>
            </g>
        </g>
    </g>
</svg>