<?xml version="1.0" encoding="UTF-8"?>
<svg width="40px" height="35px" viewBox="0 0 40 35" version="1.1" xmlns="http://www.w3.org/2000/svg" xmlns:xlink="http://www.w3.org/1999/xlink">
    <title>add user photo</title>
    <g id="vd-v3" stroke="none" stroke-width="1" fill="none" fill-rule="evenodd">
        <g id="invite-global-user" transform="translate(-355.000000, -208.000000)" fill="#212121">
            <g id="Group" transform="translate(325.000000, 178.000000)">
                <g transform="translate(24.000000, 24.000000)" id="User-plus">
                    <g transform="translate(6.000000, 6.000000)">
                        <path d="M7.5,9 C7.5,4.30558 11.30558,0.5 16,0.5 C20.6944,0.5 24.5,4.30558 24.5,9 C24.5,13.69442 20.6944,17.5 16,17.5 C11.30558,17.5 7.5,13.69442 7.5,9 Z M16,3.5 C12.96244,3.5 10.5,5.96244 10.5,9 C10.5,12.03756 12.96244,14.5 16,14.5 C19.0376,14.5 21.5,12.03756 21.5,9 C21.5,5.96244 19.0376,3.5 16,3.5 Z" id="Shape"></path>
                        <path d="M0.5,28 C0.5,23.8578 3.85786,20.5 8,20.5 L8.68174,20.5 C9.05072,20.5 9.41738,20.5584 9.76814,20.6728 L11.49918,21.2382 C14.4238,22.193 17.5762,22.193 20.5008,21.2382 L22.2318,20.6728 C22.5826,20.5584 22.9492,20.5 23.3182,20.5 L24,20.5 C28.1422,20.5 31.5,23.8578 31.5,28 L31.5,30.3766 C31.5,31.883 30.4082,33.1674 28.9214,33.4102 C20.3638,34.8074 11.6362,34.8074 3.07854,33.4102 C1.59176,33.1674 0.5,31.883 0.5,30.3766 L0.5,28 Z M8,23.5 C5.51472,23.5 3.5,25.5148 3.5,28 L3.5,30.3766 C3.5,30.4128 3.52622,30.4436 3.56194,30.4494 C11.79944,31.7944 20.2006,31.7944 28.438,30.4494 C28.4738,30.4436 28.5,30.4128 28.5,30.3766 L28.5,28 C28.5,25.5148 26.4852,23.5 24,23.5 L23.3182,23.5 C23.2656,23.5 23.2132,23.5084 23.163,23.5246 L21.432,24.09 C17.9024,25.2424 14.0976,25.2424 10.56796,24.09 L8.83694,23.5246 C8.78684,23.5084 8.73444,23.5 8.68174,23.5 L8,23.5 Z" id="Shape"></path>
                        <path d="M33,6.5 C33.8284,6.5 34.5,7.17158 34.5,8 L34.5,11.5 L38,11.5 C38.8284,11.5 39.5,12.17158 39.5,13 C39.5,13.82842 38.8284,14.5 38,14.5 L34.5,14.5 L34.5,18 C34.5,18.8284 33.8284,19.5 33,19.5 C32.1716,19.5 31.5,18.8284 31.5,18 L31.5,14.5 L28,14.5 C27.1716,14.5 26.5,13.82842 26.5,13 C26.5,12.17158 27.1716,11.5 28,11.5 L31.5,11.5 L31.5,8 C31.5,7.17158 32.1716,6.5 33,6.5 Z" id="Path" fill-rule="nonzero"></path>
                    </g>
                </g>
            </g>
        </g>
    </g>
</svg>