<?xml version="1.0" encoding="UTF-8"?>
<svg width="20px" height="16px" viewBox="0 0 20 16" version="1.1" xmlns="http://www.w3.org/2000/svg" xmlns:xlink="http://www.w3.org/1999/xlink">
    <title>adjustments</title>
    <g id="vd-v3" stroke="none" stroke-width="1" fill="none" fill-rule="evenodd">
        <g id="create-opt-plan1" transform="translate(-333.000000, -708.000000)" fill="#212121" fill-rule="nonzero">
            <g id="Group-5" transform="translate(317.000000, 698.000000)">
                <g id="Group" transform="translate(12.000000, 4.000000)">
                    <g id="Exchange" transform="translate(4.666667, 5.833333)">
                        <path d="M4.11871833,1.785385 C4.46042333,1.44368 4.46042333,0.889653333 4.11871833,0.547948333 C3.77701333,0.206243333 3.22298667,0.206243333 2.88128167,0.547948333 L0.547948333,2.88128167 C0.206243333,3.22298667 0.206243333,3.77701333 0.547948333,4.11871833 L2.88128167,6.45201667 C3.22298667,6.79373333 3.77701333,6.79373333 4.11871833,6.45201667 C4.46042333,6.1103 4.46042333,5.55632 4.11871833,5.214615 L3.27910333,4.375 L15.1666667,4.375 C15.6499,4.375 16.0416667,3.983245 16.0416667,3.5 C16.0416667,3.016755 15.6499,2.625 15.1666667,2.625 L3.27910333,2.625 L4.11871833,1.785385 Z" id="Path"></path>
                        <path d="M14.5479833,9.88131667 C14.2062667,10.2230333 14.2062667,10.7769667 14.5479833,11.1186833 L15.3875167,11.9583333 L3.5,11.9583333 C3.016755,11.9583333 2.625,12.3501 2.625,12.8333333 C2.625,13.3165667 3.016755,13.7083333 3.5,13.7083333 L15.3875167,13.7083333 L14.5479833,14.5479833 C14.2062667,14.8897 14.2062667,15.4436333 14.5479833,15.78535 C14.8897,16.1270667 15.4436333,16.1270667 15.78535,15.78535 L18.1186833,13.4520167 C18.4604,13.1103 18.4604,12.5563667 18.1186833,12.21465 L15.78535,9.88131667 C15.4436333,9.5396 14.8897,9.5396 14.5479833,9.88131667 Z" id="Path"></path>
                    </g>
                </g>
            </g>
        </g>
    </g>
</svg>