<?xml version="1.0" encoding="UTF-8"?>
<svg width="18px" height="14px" viewBox="0 0 18 14" version="1.1" xmlns="http://www.w3.org/2000/svg" xmlns:xlink="http://www.w3.org/1999/xlink">
    <title>back</title>
    <g id="vd-v3" stroke="none" stroke-width="1" fill="none" fill-rule="evenodd">
        <g id="User-Management" transform="translate(-100.000000, -25.000000)" fill="#212121" fill-rule="nonzero">
            <g id="back_button" transform="translate(93.000000, 16.000000)">
                <g id="Arrow-left" transform="translate(7.666667, 9.333333)">
                    <path d="M7.0404,2.04044 C7.43093333,1.64992 7.43093333,1.01674667 7.0404,0.626226667 C6.64986667,0.235706667 6.0168,0.235706667 5.62622667,0.626226667 L0.292893333,5.9596 C0.0976266667,6.1548 0,6.4108 0,6.66666667 C0,6.80226667 0.0269866667,6.9316 0.07588,7.04946667 C0.12468,7.16733333 0.197013333,7.27786667 0.292893333,7.37373333 L5.62622667,12.7070667 C6.0168,13.0976 6.64986667,13.0976 7.0404,12.7070667 C7.43093333,12.3165333 7.43093333,11.6834667 7.0404,11.2929333 L3.41421333,7.66666667 L16.3333333,7.66666667 C16.8856,7.66666667 17.3333333,7.21893333 17.3333333,6.66666667 C17.3333333,6.1144 16.8856,5.66666667 16.3333333,5.66666667 L3.41421333,5.66666667 L7.0404,2.04044 Z" id="Path"></path>
                </g>
            </g>
        </g>
    </g>
</svg>