<?xml version="1.0" encoding="UTF-8"?>
<svg width="26px" height="26px" viewBox="0 0 26 26" version="1.1" xmlns="http://www.w3.org/2000/svg" xmlns:xlink="http://www.w3.org/1999/xlink">
    <title>brand plan</title>
    <g id="vd-v3" stroke="none" stroke-width="1" fill="none" fill-rule="evenodd">
        <g id="new-plan-options" transform="translate(-1039.000000, -67.000000)" fill="#212121">
            <g id="Group-56" transform="translate(1010.000000, 50.000000)">
                <g id="Group-18" transform="translate(16.000000, 12.000000)">
                    <g id="Group" transform="translate(12.000000, 4.000000)">
                        <g id="Settings-alt" transform="translate(1.166667, 1.166667)">
                            <path d="M12.8333333,2.42575667 L10.2517333,5.09684 C9.97694833,5.38113333 9.598505,5.54169 9.20312167,5.54169 L5.54166667,5.54169 L5.54166667,9.20313333 C5.54166667,9.59852833 5.38112167,9.97697167 5.09681667,10.2517567 L2.42573333,12.8333333 L5.09681667,15.4149333 C5.38112167,15.6896833 5.54166667,16.06815 5.54166667,16.4635333 L5.54166667,20.125 L9.20312167,20.125 C9.598505,20.125 9.97694833,20.2855333 10.2517333,20.56985 L12.8333333,23.2409333 L15.4149333,20.56985 C15.6896833,20.2855333 16.06815,20.125 16.4635333,20.125 L20.125,20.125 L20.125,16.4635333 C20.125,16.06815 20.2855333,15.6896833 20.56985,15.4149333 L23.2409333,12.8333333 L20.56985,10.2517567 C20.2855333,9.97698333 20.125,9.59854 20.125,9.203145 L20.125,5.54169 L16.4635333,5.54169 C16.06815,5.54169 15.6896833,5.381145 15.4149333,5.09684 L12.8333333,2.42575667 Z M11.7847333,0.992576667 C12.3580333,0.399443333 13.3086333,0.399443333 13.8819333,0.992576667 L16.5873167,3.79169 L20.4166667,3.79169 C21.2221333,3.79169 21.875,4.44460333 21.875,5.25002333 L21.875,9.07940833 L24.6740667,11.7847333 C25.2672,12.3580333 25.2672,13.30875 24.6740667,13.8819333 L21.875,16.5873167 L21.875,20.4166667 C21.875,21.2221333 21.2221333,21.875 20.4166667,21.875 L16.5873167,21.875 L13.8819333,24.6740667 C13.3086333,25.2672 12.3580333,25.2672 11.7847333,24.6740667 L9.079385,21.875 L5.25,21.875 C4.44458,21.875 3.79166667,21.2221333 3.79166667,20.4166667 L3.79166667,16.5873167 L0.992565,13.8819333 C0.399431667,13.30875 0.39942,12.3580333 0.992565,11.7847333 L3.79166667,9.07940833 L3.79166667,5.25002333 C3.79166667,4.44460333 4.44458,3.79169 5.25,3.79169 L9.079385,3.79169 L11.7847333,0.992576667 Z" id="Shape"></path>
                            <path d="M7.29166667,12.8333333 C7.29166667,9.77277 9.77275833,7.29169 12.8333333,7.29169 C15.8939667,7.29169 18.375,9.77277 18.375,12.8333333 C18.375,15.8939667 15.8939667,18.375 12.8333333,18.375 C9.77275833,18.375 7.29166667,15.8939667 7.29166667,12.8333333 Z M12.8333333,9.04169 C10.7392833,9.04169 9.04166667,10.7392833 9.04166667,12.8333333 C9.04166667,14.9273833 10.7392833,16.625 12.8333333,16.625 C14.9273833,16.625 16.625,14.9273833 16.625,12.8333333 C16.625,10.7392833 14.9273833,9.04169 12.8333333,9.04169 Z" id="Shape"></path>
                        </g>
                    </g>
                </g>
            </g>
        </g>
    </g>
</svg>