<?xml version="1.0" encoding="UTF-8"?>
<svg width="20px" height="24px" viewBox="0 0 20 24" version="1.1" xmlns="http://www.w3.org/2000/svg" xmlns:xlink="http://www.w3.org/1999/xlink">
    <title>category report</title>
    <g id="vd-v3" stroke="none" stroke-width="1" fill="none" fill-rule="evenodd" opacity="0.5">
        <g id="projections" transform="translate(-573.000000, -792.000000)" fill="#666666">
            <g id="Group-9" transform="translate(557.000000, 786.000000)">
                <g id="Group" transform="translate(12.000000, 4.000000)">
                    <g id="Document" transform="translate(4.666667, 2.333333)">
                        <path d="M13.7083333,12.8333333 C13.7083333,12.3501 13.3165667,11.9583333 12.8333333,11.9583333 L5.83333333,11.9583333 C5.35008833,11.9583333 4.95833333,12.3501 4.95833333,12.8333333 C4.95833333,13.3165667 5.35008833,13.7083333 5.83333333,13.7083333 L12.8333333,13.7083333 C13.3165667,13.7083333 13.7083333,13.3165667 13.7083333,12.8333333 Z" id="Path" fill-rule="nonzero"></path>
                        <path d="M13.7083333,17.5 C13.7083333,17.0167667 13.3165667,16.625 12.8333333,16.625 L5.83333333,16.625 C5.35008833,16.625 4.95833333,17.0167667 4.95833333,17.5 C4.95833333,17.9832333 5.35008833,18.375 5.83333333,18.375 L12.8333333,18.375 C13.3165667,18.375 13.7083333,17.9832333 13.7083333,17.5 Z" id="Path" fill-rule="nonzero"></path>
                        <path d="M3.5,0.291666667 C1.72809,0.291666667 0.291666667,1.72809 0.291666667,3.5 L0.291666667,19.8333333 C0.291666667,21.6052667 1.72809,23.0416667 3.5,23.0416667 L15.1666667,23.0416667 C16.9386,23.0416667 18.375,21.6052667 18.375,19.8333333 L18.375,6.96227 C18.375,6.51803833 18.2301,6.08592833 17.96235,5.73148333 L14.4649167,1.10254667 C14.0789833,0.59185 13.47605,0.291666667 12.8359,0.291666667 L3.5,0.291666667 Z M2.04166667,3.5 C2.04166667,2.69458 2.69458,2.04166667 3.5,2.04166667 L11.9583333,2.04166667 L11.9583333,7.17155833 C11.9583333,7.65480333 12.3501,8.04655833 12.8333333,8.04655833 L16.625,8.04655833 L16.625,19.8333333 C16.625,20.6388 15.9721333,21.2916667 15.1666667,21.2916667 L3.5,21.2916667 C2.69458,21.2916667 2.04166667,20.6388 2.04166667,19.8333333 L2.04166667,3.5 Z" id="Shape"></path>
                    </g>
                </g>
            </g>
        </g>
    </g>
</svg>