<?xml version="1.0" encoding="UTF-8"?>
<svg width="23px" height="23px" viewBox="0 0 23 23" version="1.1" xmlns="http://www.w3.org/2000/svg" xmlns:xlink="http://www.w3.org/1999/xlink">
    <title>chart</title>
    <g id="vd-v3" stroke="none" stroke-width="1" fill="none" fill-rule="evenodd">
        <g id="brand-overview-historicals-data-view" transform="translate(-1251.000000, -411.000000)" fill="#212121">
            <g id="Group" transform="translate(1248.000000, 408.000000)">
                <g id="Chart-pie-alt" transform="translate(3.500000, 3.500000)">
                    <path d="M9.625,3.253075 C5.36471833,3.69091333 2.04166667,7.29073333 2.04166667,11.6666667 C2.04166667,16.3381167 5.82859667,20.125 10.5,20.125 C14.8759333,20.125 18.4758,16.8019833 18.91365,12.5416667 L10.5,12.5416667 C10.0167667,12.5416667 9.625,12.1499 9.625,11.6666667 L9.625,3.253075 Z M0.291666667,11.6666667 C0.291666667,6.028785 4.862095,1.45835667 10.5,1.45835667 C10.9832333,1.45835667 11.375,1.85011167 11.375,2.33335667 L11.375,10.7916667 L19.8333333,10.7916667 C20.3165667,10.7916667 20.7083333,11.1834333 20.7083333,11.6666667 C20.7083333,17.3045833 16.1379167,21.875 10.5,21.875 C4.862095,21.875 0.291666667,17.3045833 0.291666667,11.6666667 Z" id="Shape"></path>
                    <path d="M14.5833333,1.952615 L14.5833333,7.58335667 L20.2141333,7.58335667 C19.5571833,4.80155667 17.3651333,2.60948333 14.5833333,1.952615 Z M13.9976667,0.0719483333 C18.22135,0.597566667 21.5691,3.945305 22.0948,8.169 C22.1743667,8.80845 21.64435,9.33333333 21,9.33333333 L13.4166667,9.33333333 C13.09455,9.33333333 12.8333333,9.07223333 12.8333333,8.75 L12.8333333,1.16669 C12.8333333,0.522363333 13.3583333,-0.00761833333 13.9976667,0.0719483333 Z" id="Shape"></path>
                </g>
            </g>
        </g>
    </g>
</svg>