<svg width="50" height="50" viewBox="0 0 50 50" fill="none" xmlns="http://www.w3.org/2000/svg">
<path fill-rule="evenodd" clip-rule="evenodd" d="M24.9998 0C38.8071 0 50 11.1925 50 24.9994C50 38.8067 38.8071 49.9992 24.9998 49.9992C11.1929 49.9996 0 38.8067 0 24.9994C0 11.1925 11.1929 0 24.9998 0ZM13.8777 27.538L13.8716 27.5323C13.5521 27.2402 13.3804 26.8467 13.3605 26.4463C13.3405 26.0467 13.4724 25.6386 13.7609 25.3164C13.7649 25.3119 13.7686 25.3078 13.7727 25.3038C14.0644 24.9847 14.4579 24.8126 14.8583 24.7927C15.2607 24.7727 15.6713 24.9066 15.9943 25.1988L21.2661 29.979L33.9161 16.7308C34.2173 16.4151 34.6172 16.2507 35.0225 16.2409C35.4261 16.2307 35.8339 16.3748 36.15 16.6751V16.6755C36.4662 16.9762 36.6302 17.377 36.6403 17.7814C36.6505 18.1855 36.5061 18.594 36.2058 18.9098L22.4929 33.2716C22.4835 33.2814 22.4734 33.2907 22.4632 33.2989C22.1723 33.5898 21.7922 33.7444 21.4061 33.7587C21.0098 33.7737 20.6073 33.6395 20.2895 33.3518L13.8825 27.5421L13.8777 27.538Z" fill="#2A9872"/>
</svg>
