<?xml version="1.0" encoding="UTF-8"?>
<svg width="84px" height="29px" viewBox="0 0 84 29" version="1.1" xmlns="http://www.w3.org/2000/svg" xmlns:xlink="http://www.w3.org/1999/xlink">
    <title>current step</title>
    <g id="vd-v3" stroke="none" stroke-width="1" fill="none" fill-rule="evenodd">
        <g id="ideal-media-plan-set-up" transform="translate(-155.000000, -18.000000)" fill="#DF6261" stroke="#FF7B79">
            <g id="Group-20" transform="translate(154.000000, 19.000000)">
                <path d="M3.5451502,0 L74.7148353,0 C75.4151575,-4.79158381e-15 76.0644645,0.36630717 76.426632,0.965711801 L83.3750706,12.4657118 C83.7593417,13.1016989 83.7593417,13.8983011 83.3750706,14.5342882 L76.426632,26.0342882 C76.0644645,26.6336928 75.4151575,27 74.7148353,27 L3.5451502,27 C2.4405807,27 1.5451502,26.1045695 1.5451502,25 C1.5451502,24.6354129 1.64480945,24.2777613 1.83335351,23.9657118 L7.53193335,14.5342882 C7.91620442,13.8983011 7.91620442,13.1016989 7.53193335,12.4657118 L1.83335351,3.0342882 C1.26213191,2.08888899 1.5654628,0.859424905 2.510862,0.288203306 C2.82291149,0.0996592433 3.18056311,5.11062772e-16 3.5451502,0 Z" id="current-step"></path>
            </g>
        </g>
    </g>
</svg>