<?xml version="1.0" encoding="UTF-8"?>
<svg width="22px" height="22px" viewBox="0 0 22 22" version="1.1" xmlns="http://www.w3.org/2000/svg" xmlns:xlink="http://www.w3.org/1999/xlink">
    <title>data</title>
    <g id="vd-v3" stroke="none" stroke-width="1" fill="none" fill-rule="evenodd">
        <g id="brand-overview" transform="translate(-1259.000000, -403.000000)" fill="#212121">
            <g id="Group" transform="translate(1256.000000, 400.000000)">
                <g id="Layout" transform="translate(3.333333, 3.333333)">
                    <path d="M7.08402,1.88205167 C5.60094167,1.71629167 4.06571333,1.71629167 2.58262333,1.88205167 C2.22225167,1.922325 1.93805167,2.20768 1.89752167,2.55425 C1.72041,4.06851333 1.72041,5.59825833 1.89752167,7.11252167 C1.93805167,7.45909167 2.22225167,7.74444667 2.58262333,7.78472 C4.06571333,7.95048 5.60094167,7.95048 7.08402,7.78472 C7.44439167,7.74444667 7.72859167,7.45909167 7.76913333,7.11252167 C7.94623333,5.59825833 7.94623333,4.06851333 7.76913333,2.55425 C7.72859167,2.20768 7.44439167,1.922325 7.08402,1.88205167 Z M2.388245,0.142878333 C4.00052,-0.0373133333 5.666135,-0.0373133333 7.27839833,0.142878333 C8.43436667,0.272075 9.37061667,1.18206333 9.50723333,2.35095833 C9.7002,4.00028667 9.7002,5.666485 9.50723333,7.31581333 C9.37061667,8.48476667 8.43436667,9.39465 7.27839833,9.52391667 C5.666135,9.70405 4.00052,9.70405 2.388245,9.52391667 C1.232265,9.39465 0.296085,8.48476667 0.159375,7.31581333 C-0.0335333333,5.666485 -0.0335333333,4.00028667 0.159375,2.35095833 C0.296085,1.18206333 1.232265,0.272075 2.388245,0.142878333 Z" id="Shape"></path>
                    <path d="M7.08402,13.5486833 C5.60094167,13.3829 4.06571333,13.3829 2.58262333,13.5486833 C2.22225167,13.58905 1.93805167,13.8743 1.89752167,14.2209167 C1.72041,15.7351333 1.72041,17.2649833 1.89752167,18.7792 C1.93805167,19.1257 2.22225167,19.4110667 2.58262333,19.4514333 C4.06571333,19.6171 5.60094167,19.6171 7.08402,19.4514333 C7.44439167,19.4110667 7.72859167,19.1257 7.76913333,18.7792 C7.94623333,17.2648667 7.94623333,15.7351333 7.76913333,14.2209167 C7.72859167,13.8743 7.44439167,13.58905 7.08402,13.5486833 Z M2.388245,11.8095333 C4.00052,11.6294 5.666135,11.6294 7.27839833,11.8095333 C8.43436667,11.9388 9.37061667,12.8486833 9.50723333,14.0175667 C9.7002,15.667 9.7002,17.3331167 9.50723333,18.9824333 C9.37061667,20.1514333 8.43436667,21.0613167 7.27839833,21.1905833 C5.666135,21.3707167 4.00052,21.3707167 2.388245,21.1905833 C1.232265,21.0613167 0.296085,20.1514333 0.159375,18.9824333 C-0.0335333333,17.3331167 -0.0335333333,15.667 0.159375,14.0175667 C0.296085,12.8486833 1.232265,11.9388 2.388245,11.8095333 Z" id="Shape"></path>
                    <path d="M18.7507333,1.88205167 C17.26755,1.71629167 15.7323333,1.71629167 14.2492667,1.88205167 C13.8888833,1.922325 13.6046833,2.20768 13.5642,2.55425 C13.3871,4.06851333 13.3871,5.59825833 13.5642,7.11252167 C13.6046833,7.45909167 13.8888833,7.74444667 14.2492667,7.78472 C15.7323333,7.95048 17.26755,7.95048 18.7507333,7.78472 C19.1111167,7.74444667 19.3953167,7.45909167 19.4358,7.11252167 C19.6129,5.59825833 19.6129,4.06851333 19.4358,2.55425 C19.3953167,2.20768 19.1111167,1.922325 18.7507333,1.88205167 Z M14.0549,0.142878333 C15.6672333,-0.0373133333 17.3327667,-0.0373133333 18.9451,0.142878333 C20.1010333,0.272075 21.0372833,1.18206333 21.1739,2.35095833 C21.3668667,4.00028667 21.3668667,5.666485 21.1739,7.31581333 C21.0372833,8.48476667 20.1010333,9.39465 18.9451,9.52391667 C17.3327667,9.70405 15.6672333,9.70405 14.0549,9.52391667 C12.8989667,9.39465 11.9627167,8.48476667 11.8259833,7.31581333 C11.6331333,5.666485 11.6331333,4.00028667 11.8259833,2.35095833 C11.9627167,1.18206333 12.8989667,0.272075 14.0549,0.142878333 Z" id="Shape"></path>
                    <path d="M18.7507333,13.5486833 C17.26755,13.3829 15.7323333,13.3829 14.2492667,13.5486833 C13.8888833,13.58905 13.6046833,13.8743 13.5642,14.2209167 C13.3871,15.7351333 13.3871,17.2649833 13.5642,18.7792 C13.6046833,19.1257 13.8888833,19.4110667 14.2492667,19.4514333 C15.7323333,19.6171 17.26755,19.6171 18.7507333,19.4514333 C19.1111167,19.4110667 19.3953167,19.1257 19.4358,18.7792 C19.6129,17.2648667 19.6129,15.7351333 19.4358,14.2209167 C19.3953167,13.8743 19.1111167,13.58905 18.7507333,13.5486833 Z M14.0549,11.8095333 C15.6672333,11.6294 17.3327667,11.6294 18.9451,11.8095333 C20.1010333,11.9388 21.0372833,12.8486833 21.1739,14.0175667 C21.3668667,15.667 21.3668667,17.3331167 21.1739,18.9824333 C21.0372833,20.1514333 20.1010333,21.0613167 18.9451,21.1905833 C17.3327667,21.3707167 15.6672333,21.3707167 14.0549,21.1905833 C12.8989667,21.0613167 11.9627167,20.1514333 11.8259833,18.9824333 C11.6331333,17.3331167 11.6331333,15.667 11.8259833,14.0175667 C11.9627167,12.8486833 12.8989667,11.9388 14.0549,11.8095333 Z" id="Shape"></path>
                </g>
            </g>
        </g>
    </g>
</svg>