<?xml version="1.0" encoding="UTF-8"?>
<svg width="20px" height="21px" viewBox="0 0 20 21" version="1.1" xmlns="http://www.w3.org/2000/svg" xmlns:xlink="http://www.w3.org/1999/xlink">
    <title>data management</title>
    <g id="vd-v3" stroke="none" stroke-width="1" fill="none" fill-rule="evenodd">
        <g id="menu" transform="translate(-1151.000000, -297.000000)" fill="#212121">
            <g id="Group" transform="translate(1147.000000, 294.000000)">
                <g id="Box" transform="translate(4.164225, 3.569927)">
                    <path d="M15.3774421,9.26340625 C15.3774421,9.74663958 14.9856755,10.1384063 14.5024421,10.1384063 L5.16910879,10.1384063 C4.68586379,10.1384063 4.29410879,9.74663958 4.29410879,9.26340625 C4.29410879,8.78017292 4.68586379,8.38840625 5.16910879,8.38840625 L14.5024421,8.38840625 C14.9856755,8.38840625 15.3774421,8.78017292 15.3774421,9.26340625 Z" id="Path" fill-rule="nonzero"></path>
                    <path d="M0.952285453,5.93455625 L2.33913712,2.14568958 C2.68864712,1.19084292 3.53633545,0.506627917 4.54343712,0.36647625 C8.05474212,-0.12215875 11.6168088,-0.12215875 15.1282421,0.36647625 C16.1353088,0.506627917 16.9830088,1.19085458 17.3325421,2.14571292 L18.7194755,5.93490625 C18.9788255,6.33961125 19.1574421,6.80222958 19.2324588,7.30095625 L19.3514588,8.09176958 C19.8178921,11.1935396 19.7742588,14.3506563 19.2223088,17.4382396 C18.9776588,18.8070896 17.8534588,19.8469396 16.4696755,19.9842563 L15.0342088,20.1267062 C11.5770255,20.4698229 8.09440879,20.4698229 4.63730712,20.1267062 L3.20175879,19.9842563 C1.81801045,19.8469396 0.69385712,18.8070896 0.44917212,17.4382396 C-0.10274288,14.3506563 -0.14635288,11.1935396 0.320080453,8.09176958 L0.438998787,7.30095625 C0.514015453,6.80207792 0.69277212,6.33933125 0.952285453,5.93455625 Z M4.78464545,2.09976958 C8.13594212,1.63340625 11.5357255,1.63340625 14.8869755,2.09976958 C15.2534255,2.15077625 15.5618921,2.39975458 15.6891755,2.74722292 L16.2797421,4.36071125 C16.2267755,4.35299958 16.1734588,4.34647792 16.1199088,4.34114625 L14.9786755,4.22787458 C11.5584755,3.88840958 8.11307545,3.88840958 4.69286379,4.22788625 L3.55164212,4.34114625 C3.49803379,4.34646625 3.44478712,4.35298792 3.39192545,4.36071125 L3.98250379,2.74722292 C4.10969379,2.39975458 4.41816045,2.15077625 4.78464545,2.09976958 Z M2.46904545,6.81454958 L2.49081545,6.82251792 L2.51782379,6.74872625 C2.80452045,6.38022292 3.23516045,6.13116292 3.72448379,6.08259458 L4.86570545,5.96932292 C8.17094212,5.64126792 11.5004921,5.64126792 14.8057755,5.96932292 L15.9470088,6.08259458 C16.4364255,6.13117458 16.8671588,6.38032792 17.1538088,6.74895958 L17.1807588,6.82250625 L17.2024588,6.81457292 C17.3554088,7.03144458 17.4604088,7.28525292 17.5019421,7.56118125 L17.6208255,8.35200625 C18.0589088,11.2651729 18.0179588,14.2303729 17.4996088,17.1303562 C17.3927421,17.7285063 16.9014588,18.1828063 16.2968921,18.2427729 L14.8613088,18.3853396 C11.5191588,18.7170229 8.15239212,18.7170229 4.81014879,18.3853396 L3.37461212,18.2427729 C2.76997545,18.1828063 2.27878545,17.7285063 2.17187212,17.1303562 C1.65349879,14.2303729 1.61254879,11.2651729 2.05062045,8.35200625 L2.16953879,7.56118125 C2.21103712,7.28524125 2.31606045,7.03143292 2.46904545,6.81454958 Z" id="Shape"></path>
                </g>
            </g>
        </g>
    </g>
</svg>