<?xml version="1.0" encoding="UTF-8"?>
<svg width="22px" height="21px" viewBox="0 0 22 21" version="1.1" xmlns="http://www.w3.org/2000/svg" xmlns:xlink="http://www.w3.org/1999/xlink">
    <title>date</title>
    <g id="vd-v3" stroke="none" stroke-width="1" fill="none" fill-rule="evenodd">
        <g id="maximise-kpis-overrides-vehicles" transform="translate(-675.000000, -922.000000)" fill="#212121">
            <g id="Group-24" transform="translate(218.000000, 882.000000)">
                <g id="Group" transform="translate(454.000000, 37.000000)">
                    <g id="Calendar" transform="translate(3.500000, 3.500000)">
                        <path d="M4.66666667,0.291666667 C5.14991167,0.291666667 5.54166667,0.683421667 5.54166667,1.16666667 L5.54166667,3.112235 C8.84065,2.81843333 12.15935,2.81843333 15.4583333,3.112235 L15.4583333,1.16666667 C15.4583333,0.683421667 15.8501,0.291666667 16.3333333,0.291666667 C16.8165667,0.291666667 17.2083333,0.683421667 17.2083333,1.16666667 L17.2083333,3.28584667 C18.9501667,3.53213 20.3263667,4.90988167 20.5592333,6.66731333 L20.6602667,7.42908833 C21.0849333,10.6331167 21.0483,13.8814667 20.5513,17.0752167 C20.3051333,18.6572167 19.0199333,19.8724167 17.4265,20.02945 L16.0346667,20.1667667 C12.3538333,20.5297167 8.64616667,20.5297167 4.96525167,20.1667667 L3.57340667,20.02945 C1.98004333,19.8724167 0.694773333,18.6572167 0.448595,17.0752167 C-0.0483583333,13.8814667 -0.0850383333,10.6331167 0.339675,7.42908833 L0.44065,6.66731333 C0.67361,4.90985833 2.04975167,3.532095 3.79166667,3.285835 L3.79166667,1.16666667 C3.79166667,0.683421667 4.18342167,0.291666667 4.66666667,0.291666667 Z M5.18602,4.90326667 C8.72013333,4.55476 12.2798667,4.55476 15.8139333,4.90326667 L16.8702333,5.00745 C17.8815,5.107165 18.6909333,5.88996333 18.8244,6.89726333 L18.9254333,7.65903833 C18.9606667,7.92516667 18.9926333,8.19163333 19.0212167,8.45833333 L1.97873667,8.45833333 C2.00730833,8.19163333 2.03921667,7.92517833 2.07449667,7.65905 L2.17547167,6.89726333 C2.30899667,5.88996333 3.11845333,5.107165 4.12966167,5.00745 L5.18602,4.90326667 Z M1.839635,10.2083333 C1.72509167,12.4111167 1.83794333,14.6220667 2.17778167,16.8060667 C2.30126167,17.5996333 2.94593833,18.2091 3.74515167,18.2879667 L5.13699667,18.4251667 C8.70368333,18.7769167 12.2963167,18.7769167 15.8629333,18.4251667 L17.2547667,18.2879667 C18.0539333,18.2091 18.6986333,17.5996333 18.8221833,16.8060667 C19.1620333,14.6220667 19.27485,12.4111167 19.1602833,10.2083333 L1.839635,10.2083333 Z" id="Shape"></path>
                    </g>
                </g>
            </g>
        </g>
    </g>
</svg>