<?xml version="1.0" encoding="UTF-8"?>
<svg width="20px" height="22px" viewBox="0 0 20 22" version="1.1" xmlns="http://www.w3.org/2000/svg" xmlns:xlink="http://www.w3.org/1999/xlink">
    <title>Download</title>
    <g id="vd-v3" stroke="none" stroke-width="1" fill="none" fill-rule="evenodd">
        <g id="ideal-media-plan-FY-summary" transform="translate(-1297.000000, -1527.000000)" fill="#333333">
            <g id="Group-4" transform="translate(1286.000000, 1517.000000)">
                <g id="Group" transform="translate(7.000000, 7.000000)">
                    <g id="Download" transform="translate(4.666667, 3.500000)">
                        <path d="M7.861,0.291666667 C6.95842,0.291666667 6.20554667,0.981435 6.12672667,1.88053833 C5.96194667,3.760365 5.92025,5.64858 6.00175333,7.533085 C5.90336833,7.53967667 5.804995,7.54654833 5.70663333,7.55372333 L3.96888333,7.6804 C2.85815833,7.76136667 2.23724667,8.9999 2.83690167,9.93825 C4.11576667,11.9397833 5.76363667,13.6796333 7.69265,15.0654 L8.3888,15.5654333 C8.95335,15.9709667 9.71355,15.9709667 10.2779833,15.5654333 L10.97425,15.0654 C12.9032167,13.6796333 14.5511333,11.9397833 15.8299167,9.93825 C16.4295833,8.9999 15.8086833,7.76136667 14.6980167,7.6804 L12.9602667,7.55372333 C12.8619167,7.54654833 12.76345,7.53967667 12.6651,7.533085 C12.74665,5.64858 12.7048833,3.760365 12.54015,1.88052667 C12.4612833,0.981435 11.7084333,0.291666667 10.8059,0.291666667 L7.861,0.291666667 Z M7.7952,8.30048333 C7.66255,6.21541667 7.68728333,4.12319833 7.86928333,2.04166667 L10.7975,2.04166667 C10.9796167,4.12319833 11.00435,6.21541667 10.8717,8.30048333 C10.8567667,8.53428333 10.9363333,8.76423333 11.0923167,8.939 C11.2483,9.11365 11.4678667,9.21853333 11.7019,9.22996667 C12.0790833,9.24863333 12.45615,9.27161667 12.8329833,9.29915 L14.0950833,9.39108333 C12.97555,11.0399333 11.5738,12.47995 9.95318333,13.64405 L9.33345,14.08925 L8.7136,13.64405 C7.09298333,12.47995 5.69128,11.0399333 4.57181667,9.39108333 L5.83387,9.29915 C6.21069167,9.27161667 6.58774667,9.24863333 6.96498833,9.22996667 C7.19891667,9.21853333 7.41848333,9.11365 7.57458333,8.939 C7.73056667,8.76423333 7.81001667,8.53428333 7.7952,8.30048333 Z" id="Shape"></path>
                        <path d="M2.04166667,16.3333333 C2.04166667,15.8501 1.64991167,15.4583333 1.16666667,15.4583333 C0.683421667,15.4583333 0.291666667,15.8501 0.291666667,16.3333333 L0.291666667,18.6666667 C0.291666667,19.79425 1.20575,20.7083333 2.33333333,20.7083333 L16.3333333,20.7083333 C17.4609167,20.7083333 18.375,19.79425 18.375,18.6666667 L18.375,16.3333333 C18.375,15.8501 17.9832333,15.4583333 17.5,15.4583333 C17.0167667,15.4583333 16.625,15.8501 16.625,16.3333333 L16.625,18.6666667 C16.625,18.8277833 16.49445,18.9583333 16.3333333,18.9583333 L2.33333333,18.9583333 C2.17225167,18.9583333 2.04166667,18.8277833 2.04166667,18.6666667 L2.04166667,16.3333333 Z" id="Path" fill-rule="nonzero"></path>
                    </g>
                </g>
            </g>
        </g>
    </g>
</svg>