<?xml version="1.0" encoding="UTF-8"?>
<svg width="21px" height="22px" viewBox="0 0 21 22" version="1.1" xmlns="http://www.w3.org/2000/svg" xmlns:xlink="http://www.w3.org/1999/xlink">
    <title>edit</title>
    <g id="vd-v3" stroke="none" stroke-width="1" fill="none" fill-rule="evenodd">
        <g id="My-deck" transform="translate(-1251.000000, -167.000000)" fill="#212121">
            <g id="Group" transform="translate(1248.000000, 164.000000)">
                <g id="Edit-alt" transform="translate(3.500000, 3.500000)">
                    <path d="M14.1597167,0.547948333 C13.9956833,0.383856667 13.7730833,0.291666667 13.5410333,0.291666667 C13.3089833,0.291666667 13.0863833,0.383856667 12.92235,0.547948333 L2.19786,11.27245 C2.087925,11.38235 2.00926833,11.51955 1.96998667,11.6699333 L0.80332,16.1365167 C0.724815,16.43705 0.811545,16.7567167 1.03119333,16.9762833 C1.25084167,17.1959667 1.57049667,17.2827667 1.87104167,17.20425 L6.33754333,16.0375833 C6.48796167,15.9982667 6.62519667,15.9196333 6.73513167,15.8096167 L17.4596333,5.08522 C17.8012333,4.74350333 17.8012333,4.18948833 17.4596333,3.84778333 L14.1597167,0.547948333 Z M3.60316833,12.3419333 L13.5410333,2.40410333 L15.6034667,4.46650167 L5.66556667,14.4043667 L2.87401333,15.1335333 L3.60316833,12.3419333 Z" id="Shape"></path>
                    <path d="M1.16666667,18.9583333 C0.683421667,18.9583333 0.291666667,19.3501 0.291666667,19.8333333 C0.291666667,20.3165667 0.683421667,20.7083333 1.16666667,20.7083333 L18.6666667,20.7083333 C19.1499,20.7083333 19.5416667,20.3165667 19.5416667,19.8333333 C19.5416667,19.3501 19.1499,18.9583333 18.6666667,18.9583333 L1.16666667,18.9583333 Z" id="Path" fill-rule="nonzero"></path>
                </g>
            </g>
        </g>
    </g>
</svg>