<?xml version="1.0" encoding="UTF-8"?>
<svg width="22px" height="24px" viewBox="0 0 22 24" version="1.1" xmlns="http://www.w3.org/2000/svg" xmlns:xlink="http://www.w3.org/1999/xlink">
    <title>finalize</title>
    <g id="vd-v3" stroke="none" stroke-width="1" fill="none" fill-rule="evenodd">
        <g id="menu" transform="translate(-1150.000000, -176.000000)" fill="#212121">
            <g id="Group-14" transform="translate(1133.000000, 170.000000)">
                <g id="Group" transform="translate(14.000000, 4.000000)">
                    <g id="Award" transform="translate(3.500000, 2.333333)">
                        <path d="M10.5,4.95833333 C8.40595,4.95833333 6.70833333,6.655915 6.70833333,8.75 C6.70833333,10.84405 8.40595,12.5416667 10.5,12.5416667 C12.59405,12.5416667 14.2916667,10.84405 14.2916667,8.75 C14.2916667,6.655915 12.59405,4.95833333 10.5,4.95833333 Z M8.45833333,8.75 C8.45833333,7.62241667 9.37241667,6.70833333 10.5,6.70833333 C11.6275833,6.70833333 12.5416667,7.62241667 12.5416667,8.75 C12.5416667,9.87758333 11.6275833,10.7916667 10.5,10.7916667 C9.37241667,10.7916667 8.45833333,9.87758333 8.45833333,8.75 Z" id="Shape"></path>
                        <path d="M10.5,0.291666667 C5.82859667,0.291666667 2.04166667,4.07859667 2.04166667,8.75 C2.04166667,10.4627833 2.55078833,12.0566833 3.42594,13.3886667 L0.408893333,18.6142833 C0.237323333,18.91155 0.25529,19.2815 0.45486,19.5606833 C0.654418333,19.8398667 0.998736667,19.9766 1.33544833,19.9103333 L4.38496333,19.3109 L5.39054833,22.2516 C5.50158,22.5762833 5.79216167,22.8061167 6.13369167,22.8393667 C6.47523333,22.8726167 6.80467667,22.7032167 6.97625833,22.40595 L9.98596667,17.1929333 C10.1560667,17.2032 10.32745,17.2083333 10.5,17.2083333 C10.67255,17.2083333 10.8439333,17.2032 11.0140333,17.1929333 L14.0238,22.40595 C14.1955333,22.70345 14.5254667,22.8729667 14.8673,22.83925 C15.2091333,22.80565 15.4996333,22.5751167 15.6101167,22.24985 L16.6105333,19.3030833 L19.66265,19.9099833 C19.9995833,19.9770667 20.3445667,19.8406833 20.54465,19.5615 C20.7447333,19.2822 20.7628167,18.9117833 20.5910833,18.6142833 L17.5740833,13.3886667 C18.4492,12.0566833 18.9583333,10.4627833 18.9583333,8.75 C18.9583333,4.07859667 15.17145,0.291666667 10.5,0.291666667 Z M3.79166667,8.75 C3.79166667,5.04508667 6.79509833,2.04166667 10.5,2.04166667 C14.2048667,2.04166667 17.2083333,5.04508667 17.2083333,8.75 C17.2083333,12.4548667 14.2048667,15.4583333 10.5,15.4583333 C6.79509833,15.4583333 3.79166667,12.4548667 3.79166667,8.75 Z M8.14772,16.877 C6.80257667,16.4882667 5.59529833,15.7747333 4.616395,14.8267 L2.88715,17.8218833 L4.79694833,17.44645 C5.22634,17.3619833 5.65206833,17.6078 5.793655,18.02185 L6.42342167,19.86355 L8.14772,16.877 Z M14.5737667,19.85865 L12.85235,16.877 C14.1974,16.4882667 15.4046667,15.7747333 16.3836167,14.8267 L18.11005,17.8169833 L16.1992833,17.4371167 C15.7686667,17.3514833 15.3413167,17.5982333 15.20015,18.0140333 L14.5737667,19.85865 Z" id="Shape"></path>
                    </g>
                </g>
            </g>
        </g>
    </g>
</svg>