<?xml version="1.0" encoding="UTF-8"?>
<svg width="32px" height="32px" viewBox="0 0 32 32" version="1.1" xmlns="http://www.w3.org/2000/svg" xmlns:xlink="http://www.w3.org/1999/xlink">
    <title>hide</title>
    <g id="hide" stroke="none" stroke-width="1" fill="none" fill-rule="evenodd">
        <g id="Eye-closed" transform="translate(2.666667, 4.000000)" fill="#212121">
            <path d="M24.7070667,2.04044 C25.0976,1.64992 25.0976,1.01674667 24.7070667,0.626226667 C24.3165333,0.235706667 23.6834667,0.235706667 23.2929333,0.626226667 L1.95956,21.9596 C1.56904,22.3501333 1.56904,22.9832 1.95956,23.3737333 C2.35008,23.7642667 2.98325333,23.7642667 3.37377333,23.3737333 L7.16964,19.5778667 C8.99137333,20.4354667 11.0896,21 13.3333333,21 C16.912,21 20.1204,19.5638667 22.4274667,17.7933333 C23.5832,16.9062667 24.5376,15.9168 25.2118667,14.9452 C25.8674667,14.0004 26.3333333,12.9636 26.3333333,12 C26.3333333,11.0364 25.8674667,9.9996 25.2118667,9.05486667 C24.5376,8.08325333 23.5832,7.09370667 22.4274667,6.20670667 C22.078,5.93846667 21.7077333,5.67789333 21.3186667,5.42884 L24.7070667,2.04044 Z M19.866,6.88150667 L17.5049333,9.24261333 C18.0284,10.0330667 18.3333333,10.9809333 18.3333333,12 C18.3333333,14.7614667 16.0948,17 13.3333333,17 C12.3142667,17 11.3664,16.6950667 10.5759467,16.1716 L8.68698667,18.0605333 C10.1076933,18.6393333 11.6828,19 13.3333333,19 C16.382,19 19.1736,17.7694667 21.2097333,16.2066667 C22.2256,15.4270667 23.0285333,14.5832 23.5688,13.8048 C24.1276,12.9996 24.3333333,12.3697333 24.3333333,12 C24.3333333,11.6302667 24.1276,11.0004 23.5688,10.1952 C23.0285333,9.4168 22.2256,8.57296 21.2097333,7.79329333 C20.7921333,7.47281333 20.3428,7.16629333 19.866,6.88150667 Z M12.0398667,14.7076 C12.4316,14.8950667 12.8701333,15 13.3333333,15 C14.9901333,15 16.3333333,13.6568 16.3333333,12 C16.3333333,11.5368 16.2284,11.0982667 16.0409333,10.7065333 L12.0398667,14.7076 Z" id="Shape"></path>
            <path d="M13.3333333,3 C14.7097333,3 16.0314667,3.21245333 17.2681333,3.57468 C17.5061333,3.64437333 17.5769333,3.94216 17.4017333,4.11746667 L16.3022667,5.21686667 C16.2197333,5.29934667 16.1002667,5.33237333 15.9866667,5.30622667 C15.1341333,5.11009333 14.2452,5 13.3333333,5 C10.2846,5 7.49304,6.23056 5.45689333,7.79329333 C4.44104,8.57296 3.63809333,9.4168 3.09790667,10.1952 C2.53908,11.0004 2.33333333,11.6302667 2.33333333,12 C2.33333333,12.3697333 2.53908,12.9996 3.09790667,13.8048 C3.56966667,14.4846667 4.24184,15.2142667 5.08121333,15.9076 C5.23569333,16.0352 5.25041333,16.2686667 5.10874667,16.4104 L4.16353333,17.3556 C4.04312,17.476 3.85097333,17.4865333 3.72049333,17.3772 C2.79652,16.6022667 2.02536,15.7673333 1.4548,14.9452 C0.79916,14.0004 0.333333333,12.9636 0.333333333,12 C0.333333333,11.0364 0.79916,9.9996 1.4548,9.05486667 C2.12908,8.08325333 3.08349333,7.09370667 4.23921333,6.20670667 C6.5462,4.43610667 9.75464,3 13.3333333,3 Z" id="Path" fill-rule="nonzero"></path>
            <path d="M13.3333333,7 C13.4913333,7 13.6476,7.00732 13.8017333,7.02165333 C14.0642667,7.04604 14.1592,7.35988 13.9728,7.54626667 L12.3565333,9.16261333 C11.4854667,9.4624 10.7957333,10.1521333 10.4959467,11.0232 L8.8796,12.6394667 C8.69321333,12.8258667 8.37937333,12.7309333 8.35498667,12.4684 C8.34065333,12.3142667 8.33333333,12.158 8.33333333,12 C8.33333333,9.23857333 10.5719067,7 13.3333333,7 Z" id="Path" fill-rule="nonzero"></path>
        </g>
    </g>
</svg>