<?xml version="1.0" encoding="UTF-8"?>
<svg width="19px" height="22px" viewBox="0 0 19 22" version="1.1" xmlns="http://www.w3.org/2000/svg" xmlns:xlink="http://www.w3.org/1999/xlink">
    <title>home</title>
    <g id="vd-v3" stroke="none" stroke-width="1" fill="none" fill-rule="evenodd">
        <g id="ideal-media-plan-set-up" transform="translate(-100.000000, -21.000000)">
            <g id="back_button" transform="translate(88.000000, 11.000000)">
                <g id="Group-28" transform="translate(7.000000, 7.000000)">
                    <rect id="Rectangle" x="0" y="0" width="28" height="28"></rect>
                    <g id="Home" transform="translate(4.375000, 3.500000)" fill="#212121">
                        <path d="M11.6691474,2.80099105 C10.7070158,1.87769842 9.18772105,1.87769842 8.22558947,2.80099105 L3.11213368,7.70763 C2.98685211,7.82780526 2.90257579,7.98442105 2.87125263,8.15518421 C2.25879316,11.4951789 2.21358789,14.9144211 2.73752684,18.2694474 L2.86189105,19.0657895 L6.15166263,19.0657895 L6.15166263,12.2006684 C6.15166263,11.7427579 6.52279895,11.3717211 6.98061,11.3717211 L12.9141158,11.3717211 C13.3719158,11.3717211 13.7430632,11.7427579 13.7430632,12.2006684 L13.7430632,19.0657895 L17.0328789,19.0657895 L17.1572211,18.2694474 C17.6811158,14.9144211 17.6359105,11.4951789 17.0234842,8.15518421 C16.9922053,7.98442105 16.9078737,7.82780526 16.7826474,7.70763 L11.6691474,2.80099105 Z M7.07769632,1.60474263 C8.6814,0.0659289474 11.2133368,0.0659289474 12.8170737,1.60474263 L17.9304632,6.51138158 C18.3069158,6.87257053 18.5601316,7.34307 18.6541895,7.85621053 C19.3002158,11.3793474 19.3479632,14.9862632 18.7952211,18.5252053 L18.5955,19.8045474 C18.5128263,20.3336368 18.0571263,20.7236842 17.5216263,20.7236842 L12.9141158,20.7236842 C12.4563158,20.7236842 12.0851684,20.3525368 12.0851684,19.8947368 L12.0851684,13.0296158 L7.80956842,13.0296158 L7.80956842,19.8947368 C7.80956842,20.3525368 7.43842105,20.7236842 6.98061,20.7236842 L2.37306632,20.7236842 C1.83758842,20.7236842 1.38189947,20.3336368 1.29928105,19.8045474 L1.09949368,18.5252053 C0.546806842,14.9862632 0.594498947,11.3793474 1.24055842,7.85621053 C1.33464947,7.34307 1.58784316,6.87257053 1.96426263,6.51138158 L7.07769632,1.60474263 Z" id="Shape"></path>
                    </g>
                </g>
            </g>
        </g>
    </g>
</svg>