<?xml version="1.0" encoding="UTF-8"?>
<svg width="24px" height="24px" viewBox="0 0 24 24" version="1.1" xmlns="http://www.w3.org/2000/svg" xmlns:xlink="http://www.w3.org/1999/xlink">
    <title>include</title>
    <g id="vd-v3" stroke="none" stroke-width="1" fill="none" fill-rule="evenodd">
        <g id="Optimized-media-plan-for-target-obj" transform="translate(-397.000000, -783.000000)" fill="#212121">
            <g id="Group-5" transform="translate(181.000000, 778.000000)">
                <g id="Group" transform="translate(202.000000, 0.000000)">
                    <g id="Group" transform="translate(12.000000, 4.000000)">
                        <g id="Umbrella" transform="translate(2.333333, 1.166667)">
                            <path d="M12.5416667,1.16666667 C12.5416667,0.683421667 12.1499,0.291666667 11.6666667,0.291666667 C11.1834333,0.291666667 10.7916667,0.683421667 10.7916667,1.16666667 L10.7916667,1.49149 C4.97751333,1.93377333 0.385221667,6.74686833 0.292946134,12.6526167 C0.28476,13.1861333 0.669923333,13.6376333 1.18699,13.7237333 C4.36760333,14.2538667 7.578375,14.5409833 10.7916667,14.5850833 L10.7916667,21 C10.7916667,21.4832333 10.3999,21.875 9.91666667,21.875 C9.43343333,21.875 9.04166667,21.4832333 9.04166667,21 L9.04166667,20.4166667 C9.04166667,19.9334333 8.64991167,19.5416667 8.16666667,19.5416667 C7.68342167,19.5416667 7.29166667,19.9334333 7.29166667,20.4166667 L7.29166667,21 C7.29166667,22.4497 8.46692,23.625 9.91666667,23.625 C11.3663667,23.625 12.5416667,22.4497 12.5416667,21 L12.5416667,14.5850833 C15.7549,14.5409833 18.9656833,14.2538667 22.1463667,13.7237333 C22.6634333,13.6376333 23.04855,13.18625 23.0403978,12.6526167 C22.9481,6.74686833 18.3558667,1.93376167 12.5416667,1.49149 L12.5416667,1.16666667 Z M21.2636667,12.0937833 C20.8861333,7.12373667 16.7336167,3.20833333 11.6666667,3.20833333 C6.59975167,3.20833333 2.44718833,7.12373667 2.06964333,12.0937833 C8.42885167,13.0902333 14.9045167,13.0902333 21.2636667,12.0937833 Z" id="Shape"></path>
                        </g>
                    </g>
                </g>
            </g>
        </g>
    </g>
</svg>