<?xml version="1.0" encoding="UTF-8"?>
<svg width="22px" height="26px" viewBox="0 0 22 26" version="1.1" xmlns="http://www.w3.org/2000/svg" xmlns:xlink="http://www.w3.org/1999/xlink">
    <title>invite</title>
    <g id="vd-v3" stroke="none" stroke-width="1" fill="none" fill-rule="evenodd">
        <g id="User-Management" transform="translate(-1068.000000, -19.000000)" fill="#212121">
            <g id="Group-14" transform="translate(1051.000000, 14.000000)">
                <g id="Group" transform="translate(12.000000, 2.000000)">
                    <g id="Contacts" transform="translate(5.333333, 2.666667)">
                        <path d="M8,9.33336 C8,7.8606 9.19386667,6.66669333 10.6666667,6.66669333 C12.1394667,6.66669333 13.3333333,7.8606 13.3333333,9.33336 C13.3333333,10.8061333 12.1394667,12 10.6666667,12 C9.19386667,12 8,10.8061333 8,9.33336 Z" id="Path" fill-rule="nonzero"></path>
                        <path d="M9.33333333,14 C7.1242,14 5.33333333,15.7909333 5.33333333,18 C5.33333333,18.7364 5.93029333,19.3333333 6.66666667,19.3333333 L14.6666667,19.3333333 C15.4030667,19.3333333 16,18.7364 16,18 C16,15.7909333 14.2092,14 12,14 L9.33333333,14 Z" id="Path" fill-rule="nonzero"></path>
                        <path d="M4.72470667,1.17693333 C8.66573333,0.610613333 12.6676,0.610613333 16.6086667,1.17693333 C18.5626667,1.45772 20.0681333,3.04357333 20.2469333,5.00952 L20.4162667,6.87049333 C20.8073333,11.1701333 20.8073333,15.4965333 20.4162667,19.7962667 L20.2469333,21.6572 C20.0681333,23.6232 18.5626667,25.2090667 16.6086667,25.4897333 C12.6676,26.0561333 8.66573333,26.0561333 4.72470667,25.4897333 C2.77072,25.2090667 1.26525333,23.6232 1.08642667,21.6572 L0.917133333,19.7962667 C0.526,15.4965333 0.526,11.1701333 0.917133333,6.87049333 L1.08642667,5.00952 C1.26525333,3.04357333 2.77072,1.45772 4.72470667,1.17693333 Z M16.3241333,3.1566 C12.5717333,2.6174 8.7616,2.6174 5.00917333,3.1566 C3.97212,3.30562667 3.17310667,4.14730667 3.0782,5.19070667 L2.90890667,7.05168 C2.52873333,11.2308 2.52873333,15.4358667 2.90890667,19.6150667 L3.0782,21.476 C3.17312,22.5194667 3.97212,23.3610667 5.00917333,23.5101333 C8.7616,24.0493333 12.5717333,24.0493333 16.3241333,23.5101333 C17.3612,23.3610667 18.1602667,22.5194667 18.2552,21.476 L18.4244,19.6150667 C18.8046667,15.4358667 18.8046667,11.2308 18.4244,7.05168 L18.2552,5.19070667 C18.1602667,4.14730667 17.3612,3.30562667 16.3241333,3.1566 Z" id="Shape"></path>
                    </g>
                </g>
            </g>
        </g>
    </g>
</svg>