<?xml version="1.0" encoding="UTF-8"?>
<svg width="26px" height="14px" viewBox="0 0 26 14" version="1.1" xmlns="http://www.w3.org/2000/svg" xmlns:xlink="http://www.w3.org/1999/xlink">
    <title>Key</title>
    <g id="vd-v3" stroke="none" stroke-width="1" fill="none" fill-rule="evenodd">
        <g id="ideal-media-plan-set-up" transform="translate(-1170.000000, -219.000000)" fill="#212121">
            <g id="Group" transform="translate(1169.000000, 212.000000)">
                <g id="Key" transform="translate(1.166667, 7.000000)">
                    <path d="M7,4.66666667 C5.711335,4.66666667 4.66666667,5.7113 4.66666667,7 C4.66666667,8.2887 5.711335,9.33333333 7,9.33333333 C8.288665,9.33333333 9.33333333,8.2887 9.33333333,7 C9.33333333,5.7113 8.288665,4.66666667 7,4.66666667 Z" id="Path" fill-rule="nonzero"></path>
                    <path d="M7,0.291666667 C3.29508667,0.291666667 0.291666667,3.29508667 0.291666667,7 C0.291666667,10.7048667 3.29508667,13.7083333 7,13.7083333 C9.54399833,13.7083333 11.7555667,12.29235 12.8926,10.2083333 L16.625,10.2083333 L16.625,12.8333333 C16.625,13.3165667 17.0167667,13.7083333 17.5,13.7083333 L21.5833333,13.7083333 C22.0665667,13.7083333 22.4583333,13.3165667 22.4583333,12.8333333 L22.4583333,10.2083333 L24.5,10.2083333 C24.9832333,10.2083333 25.375,9.81656667 25.375,9.33333333 L25.375,5.83333333 C25.375,4.70575 24.4609167,3.79166667 23.3333333,3.79166667 L12.8926,3.79166667 C11.7555667,1.70766167 9.54399833,0.291666667 7,0.291666667 Z M2.04166667,7 C2.04166667,4.26158833 4.26158833,2.04166667 7,2.04166667 C9.03187833,2.04166667 10.7802333,3.26397167 11.54615,5.01701667 C11.6853333,5.33563333 12.0002167,5.54166667 12.348,5.54166667 L23.3333333,5.54166667 C23.49445,5.54166667 23.625,5.67221667 23.625,5.83333333 L23.625,8.45833333 L21.5833333,8.45833333 C21.1001,8.45833333 20.7083333,8.8501 20.7083333,9.33333333 L20.7083333,11.9583333 L18.375,11.9583333 L18.375,9.33333333 C18.375,8.8501 17.9832333,8.45833333 17.5,8.45833333 L12.348,8.45833333 C12.0002167,8.45833333 11.6853333,8.66436667 11.54615,8.98298333 C10.7802333,10.7360167 9.03187833,11.9583333 7,11.9583333 C4.26158833,11.9583333 2.04166667,9.7384 2.04166667,7 Z" id="Shape"></path>
                </g>
            </g>
        </g>
    </g>
</svg>