<?xml version="1.0" encoding="UTF-8"?>
<svg width="14px" height="17px" viewBox="0 0 14 17" version="1.1" xmlns="http://www.w3.org/2000/svg" xmlns:xlink="http://www.w3.org/1999/xlink">
    <title>lock</title>
    <g id="vd-v3" stroke="none" stroke-width="1" fill="none" fill-rule="evenodd">
        <g id="vehicle-mix-analysis-brand-results" transform="translate(-683.000000, -1419.000000)" fill="#212121">
            <g id="Group-30" transform="translate(318.000000, 1416.000000)">
                <g id="Group" transform="translate(362.000000, 2.000000)">
                    <g id="Lock" transform="translate(3.333333, 1.666667)">
                        <path d="M5.41666667,11.6666667 C5.41666667,10.9763333 5.97633333,10.4166667 6.66666667,10.4166667 C7.357,10.4166667 7.91666667,10.9763333 7.91666667,11.6666667 C7.91666667,12.357 7.357,12.9166667 6.66666667,12.9166667 C5.97633333,12.9166667 5.41666667,12.357 5.41666667,11.6666667 Z" id="Path" fill-rule="nonzero"></path>
                        <path d="M3.01804167,7.16425 L2.755175,4.79846667 C2.721475,4.49515 2.721475,4.18903333 2.755175,3.88571667 L2.77415,3.71496667 C2.97538333,1.90380833 4.399225,0.470766667 6.20908333,0.257841667 C6.51308333,0.222075 6.82025,0.222075 7.12425,0.257841667 C8.93408333,0.470766667 10.3579167,1.90381667 10.5591667,3.714975 L10.5780833,3.88571667 C10.6118333,4.18903333 10.6118333,4.49515 10.5780833,4.79845833 L10.31525,7.16425 L10.8874167,7.20991667 C11.7896667,7.282 12.5264167,7.96025 12.67275,8.8535 C12.97775,10.7165 12.97775,12.61675 12.67275,14.4798333 C12.5264167,15.3730833 11.7896667,16.0513333 10.8874167,16.1233333 L9.64066667,16.2229167 C7.66116667,16.3809167 5.67225,16.3809167 3.69273333,16.2229167 L2.44595833,16.1233333 C1.54368333,16.0513333 0.806933333,15.3730833 0.660666667,14.4798333 C0.355608333,12.61675 0.355608333,10.7165 0.660666667,8.8535 C0.806933333,7.96025 1.54368333,7.282 2.44595833,7.20991667 L3.01804167,7.16425 Z M6.35508333,1.49928333 C6.56208333,1.47493333 6.77125,1.47493333 6.97816667,1.49928333 C8.21041667,1.64424167 9.17975,2.61991667 9.31683333,3.85300833 L9.33575,4.02375833 C9.35925,4.235325 9.35925,4.44885 9.33575,4.660425 L9.06816667,7.06916667 C7.46883333,6.96616667 5.8645,6.96616667 4.26516667,7.06916667 L3.99753333,4.660425 C3.974025,4.44885 3.974025,4.235325 3.99753333,4.02375833 L4.0165,3.85300833 C4.15351667,2.61991667 5.12291667,1.64424167 6.35508333,1.49928333 Z M9.54116667,8.35641667 C7.62791667,8.20375 5.7055,8.20375 3.79220833,8.35641667 L2.54543333,8.456 C2.216325,8.48225 1.94759167,8.72966667 1.89424167,9.0555 C1.61108333,10.78475 1.61108333,12.5485833 1.89424167,14.2778333 C1.94759167,14.6036667 2.216325,14.8510833 2.54543333,14.8773333 L3.79220833,14.9768333 C5.7055,15.1295833 7.62791667,15.1295833 9.54116667,14.9768333 L10.7879167,14.8773333 C11.1170833,14.8510833 11.38575,14.6036667 11.4391667,14.2778333 C11.7223333,12.5485833 11.7223333,10.78475 11.4391667,9.0555 C11.38575,8.72966667 11.1170833,8.48225 10.7879167,8.456 L9.54116667,8.35641667 Z" id="Shape"></path>
                    </g>
                </g>
            </g>
        </g>
    </g>
</svg>