<?xml version="1.0" encoding="UTF-8"?>
<svg width="21px" height="20px" viewBox="0 0 21 20" version="1.1" xmlns="http://www.w3.org/2000/svg" xmlns:xlink="http://www.w3.org/1999/xlink">
    <title>Login</title>
    <g id="vd-v3" stroke="none" stroke-width="1" fill="none" fill-rule="evenodd">
        <g id="mbat-login" transform="translate(-817.000000, -406.000000)" fill="#212121">
            <g id="Group-10" transform="translate(802.000000, 398.000000)">
                <g id="Group" transform="translate(12.000000, 4.000000)">
                    <g id="Login" transform="translate(3.500000, 4.666667)">
                        <path d="M10.5,16.625 C10.0167667,16.625 9.625,17.0167667 9.625,17.5 C9.625,17.9832333 10.0167667,18.375 10.5,18.375 L17.5,18.375 C18.6275833,18.375 19.5416667,17.4609167 19.5416667,16.3333333 L19.5416667,2.33333333 C19.5416667,1.20575 18.6275833,0.291666667 17.5,0.291666667 L10.5,0.291666667 C10.0167667,0.291666667 9.625,0.683421667 9.625,1.16666667 C9.625,1.64991167 10.0167667,2.04166667 10.5,2.04166667 L17.5,2.04166667 C17.6611167,2.04166667 17.7916667,2.17225167 17.7916667,2.33333333 L17.7916667,16.3333333 C17.7916667,16.49445 17.6611167,16.625 17.5,16.625 L10.5,16.625 Z" id="Path" fill-rule="nonzero"></path>
                        <path d="M0.291666667,10.6344 C0.291666667,11.4398667 0.94458,12.0927333 1.75,12.0927333 L7.13136667,12.0927333 C7.13897333,12.1783667 7.14694167,12.264 7.15526,12.3496333 L7.218295,12.9981833 C7.31446333,13.9876333 8.36511667,14.5801833 9.2617,14.1506167 C11.1682667,13.2368833 13.0099667,11.8657 14.4723833,10.3387667 C15.01395,9.77328333 15.01395,8.8816 14.4723833,8.31611667 L14.35665,8.19525 C12.8942333,6.66841 11.1682667,5.418035 9.2617,4.50431333 C8.36511667,4.07467667 7.31446333,4.66723833 7.218295,5.6567 L7.15526,6.30522667 C7.14694167,6.39084833 7.13897333,6.47649333 7.13136667,6.56215 L1.75,6.56215 C0.94458,6.56215 0.291666667,7.21501667 0.291666667,8.02048333 L0.291666667,10.6344 Z M8.81206667,11.11915 C8.76248333,10.6793167 8.38985,10.3427333 7.94263167,10.3427333 L2.04166667,10.3427333 L2.04166667,8.31215 L7.94263167,8.31215 C8.40478333,8.31215 8.78721667,7.95281667 8.81591667,7.49163333 C8.83715,7.15225 8.8641,6.81318167 8.897,6.47452167 L8.91531667,6.28628 C10.4377,7.07081667 11.8232333,8.09771667 13.0173167,9.3275 C12.5186833,9.84095 11.9868,10.3189333 11.4254,10.7588833 C10.6423333,11.3724333 9.8021,11.9116667 8.91531667,12.36865 L8.897,12.18035 C8.8641,11.8416667 8.83715,11.5026333 8.81591667,11.16325 C8.81498333,11.1484333 8.8137,11.1337333 8.81206667,11.11915 Z" id="Shape"></path>
                    </g>
                </g>
            </g>
        </g>
    </g>
</svg>