<?xml version="1.0" encoding="UTF-8"?>
<svg width="21px" height="20px" viewBox="0 0 21 20" version="1.1" xmlns="http://www.w3.org/2000/svg" xmlns:xlink="http://www.w3.org/1999/xlink">
    <title>Logout</title>
    <g id="vd-v3" stroke="none" stroke-width="1" fill="none" fill-rule="evenodd">
        <g id="menu" transform="translate(-1150.000000, -338.000000)" fill="#212121">
            <g id="Group-31" transform="translate(1147.000000, 334.000000)">
                <g id="Logout" transform="translate(3.791668, 4.958333)">
                    <path d="M10.2083319,16.3333333 C9.72509854,16.3333333 9.33333188,16.7251 9.33333188,17.2083333 C9.33333188,17.6915667 9.72509854,18.0833333 10.2083319,18.0833333 L17.2083319,18.0833333 C18.3359152,18.0833333 19.2499985,17.16925 19.2499985,16.0416667 L19.2499985,2.04166667 C19.2499985,0.914083333 18.3359152,0 17.2083319,0 L10.2083319,0 C9.72509854,0 9.33333188,0.391755 9.33333188,0.875 C9.33333188,1.358245 9.72509854,1.75 10.2083319,1.75 L17.2083319,1.75 C17.3694485,1.75 17.4999985,1.880585 17.4999985,2.04166667 L17.4999985,16.0416667 C17.4999985,16.2027833 17.3694485,16.3333333 17.2083319,16.3333333 L10.2083319,16.3333333 Z" id="Path" fill-rule="nonzero"></path>
                    <path d="M13.1286152,11.8010667 C13.9339652,11.8010667 14.5869485,11.1482 14.5869485,10.3427333 L14.5869485,7.72881667 C14.5869485,6.92335 13.9339652,6.27048333 13.1286152,6.27048333 L7.74722521,6.27048333 C7.73961854,6.18482667 7.73165021,6.09918167 7.72333188,6.01356 L7.66029688,5.36503333 C7.56412854,4.37557167 6.51342854,3.78301 5.61692688,4.21264667 C3.71033688,5.12636833 1.98432354,6.37674333 0.521918542,7.90358333 L0.406185208,8.02445 C-0.135393125,8.58993333 -0.135393125,9.48161667 0.406173542,10.0471 L0.521918542,10.1679667 C1.98432354,11.6947833 3.71033688,12.9452167 5.61692688,13.85895 C6.51341688,14.2885167 7.56412854,13.6959667 7.66029688,12.7065167 L7.72333188,12.0579667 C7.73165021,11.9723333 7.73961854,11.8867 7.74722521,11.8010667 L13.1286152,11.8010667 Z M6.93596021,10.0510667 C6.62519521,10.0510667 6.35046854,10.2135833 6.19509188,10.4603333 C6.11943354,10.5805 6.07207854,10.7206167 6.06265188,10.8715833 C6.04148854,11.2109667 6.01444521,11.55 5.98153354,11.8886833 L5.96324021,12.0769833 C4.75451521,11.4539833 3.63201854,10.6782667 2.62310854,9.76955 C2.36135521,9.53376667 2.10725521,9.28911667 1.86127521,9.03583333 C3.05540521,7.80605 4.44092688,6.77915 5.96324021,5.99461333 L5.98153354,6.182855 C6.01444521,6.521515 6.04148854,6.86058333 6.06265188,7.19996667 C6.09142188,7.66115 6.47385521,8.02048333 6.93596021,8.02048333 L12.8369485,8.02048333 L12.8369485,10.0510667 L6.93596021,10.0510667 Z" id="Shape"></path>
                </g>
            </g>
        </g>
    </g>
</svg>