<?xml version="1.0" encoding="UTF-8"?>
<svg width="27px" height="20px" viewBox="0 0 27 20" version="1.1" xmlns="http://www.w3.org/2000/svg" xmlns:xlink="http://www.w3.org/1999/xlink">
    <title>macro trends</title>
    <g id="vd-v3" stroke="none" stroke-width="1" fill="none" fill-rule="evenodd" opacity="0.5">
        <g id="projections" transform="translate(-750.000000, -794.000000)" fill="#666666">
            <g id="Group-9" transform="translate(557.000000, 786.000000)">
                <g id="Group-7" transform="translate(180.000000, 0.000000)">
                    <g id="Group" transform="translate(12.000000, 4.000000)">
                        <g id="Pulse" transform="translate(1.166667, 4.666667)">
                            <path d="M8.44628167,1.02193 C8.37953667,0.624061667 8.04941667,0.323388333 7.64705667,0.294011667 C7.24469667,0.264635 6.87439667,0.51415 6.75056667,0.898111667 L4.312315,8.45833333 L1.16666667,8.45833333 C0.683421667,8.45833333 0.291666667,8.8501 0.291666667,9.33333333 C0.291666667,9.81656667 0.683421667,10.2083333 1.16666667,10.2083333 L4.94949,10.2083333 C5.329275,10.2083333 5.66568333,9.96333333 5.78225667,9.6019 L7.314265,4.85168833 L9.46029,17.6447833 C9.52792167,18.0479833 9.86573,18.3506167 10.2739,18.3736 C10.6821167,18.3967 11.0518333,18.1339667 11.1644167,17.7410333 L13.9988333,7.8477 L15.49205,13.0737833 C15.5881833,13.4104833 15.876,13.6574667 16.22355,13.70145 C16.5709833,13.7454333 16.9113,13.5779 17.0882833,13.2756167 L18.8853,10.2083333 L20.24575,10.2083333 C20.6266667,11.5550167 21.8647333,12.5416667 23.3333333,12.5416667 C25.1052667,12.5416667 26.5416667,11.1052667 26.5416667,9.33333333 C26.5416667,7.5614 25.1052667,6.12502333 23.3333333,6.12502333 C21.8647333,6.12502333 20.6266667,7.11176667 20.24575,8.45833333 L18.3838667,8.45833333 C18.0731833,8.45833333 17.7858333,8.62306667 17.6289167,8.89105 L16.6126333,10.6257667 L14.8412833,4.42631 C14.7340667,4.05078333 14.3908333,3.79183 14.00035,3.79169 C13.60975,3.79153833 13.2664,4.05024667 13.1588333,4.42569167 L10.5466667,13.5431333 L8.44628167,1.02193 Z M21.875,9.33333333 C21.875,8.52798333 22.5278667,7.875 23.3333333,7.875 C24.1388,7.875 24.7916667,8.52798333 24.7916667,9.33333333 C24.7916667,10.1388 24.1388,10.7916667 23.3333333,10.7916667 C22.5278667,10.7916667 21.875,10.1388 21.875,9.33333333 Z" id="Shape"></path>
                        </g>
                    </g>
                </g>
            </g>
        </g>
    </g>
</svg>