<?xml version="1.0" encoding="UTF-8"?>
<svg width="24px" height="24px" viewBox="0 0 24 24" version="1.1" xmlns="http://www.w3.org/2000/svg" xmlns:xlink="http://www.w3.org/1999/xlink">
    <title>maximize</title>
    <g id="vd-v3" stroke="none" stroke-width="1" fill="none" fill-rule="evenodd">
        <g id="sim-scenario-options" transform="translate(-1221.000000, -762.000000)" fill="#212121">
            <g id="Group-30" transform="translate(1207.000000, 756.000000)">
                <g id="Group" transform="translate(12.000000, 4.000000)">
                    <g id="Processor" transform="translate(2.333333, 2.333333)">
                        <path d="M13.77635,7.52200167 C12.3851,7.36652 10.9481167,7.36652 9.55698333,7.52200167 C8.50932833,7.6391 7.66031,8.4637 7.53625833,9.52431667 C7.36978667,10.9477667 7.36978667,12.3856833 7.53625833,13.8090167 C7.66031,14.8696333 8.50932833,15.6942333 9.55698333,15.8113667 C10.9481167,15.9667667 12.3851,15.9667667 13.77635,15.8113667 C14.8240167,15.6942333 15.673,14.8696333 15.7970167,13.8090167 C15.9635,12.3856833 15.9635,10.9477667 15.7970167,9.52431667 C15.673,8.4637 14.8240167,7.6391 13.77635,7.52200167 Z M9.75135,9.261175 C11.0133333,9.12013667 12.32,9.12013667 13.5819833,9.261175 C13.8339833,9.28935 14.0310333,9.48931667 14.0589167,9.72766667 C14.2095333,11.0159 14.2095333,12.3174333 14.0589167,13.6056667 C14.0310333,13.8440167 13.8339833,14.0439833 13.5819833,14.0722167 C12.32,14.21315 11.0133333,14.21315 9.75135,14.0722167 C9.49935,14.0439833 9.30228833,13.8440167 9.274405,13.6056667 C9.12373,12.3174333 9.12373,11.0159 9.274405,9.72766667 C9.30228833,9.48931667 9.49935,9.28935 9.75135,9.261175 Z" id="Shape"></path>
                        <path d="M16.0416667,1.16666667 C16.0416667,0.683421667 15.6499,0.291666667 15.1666667,0.291666667 C14.6834333,0.291666667 14.2916667,0.683421667 14.2916667,1.16666667 L14.2916667,4.11089 C13.7103167,4.07005667 13.1264,4.04285 12.5416667,4.02927 L12.5416667,2.33333333 C12.5416667,1.85008833 12.1499,1.45833333 11.6666667,1.45833333 C11.1834333,1.45833333 10.7916667,1.85008833 10.7916667,2.33333333 L10.7916667,4.02927 C10.2069333,4.04285 9.62301667,4.07005667 9.04166667,4.11089 L9.04166667,1.16666667 C9.04166667,0.683421667 8.64991167,0.291666667 8.16666667,0.291666667 C7.68342167,0.291666667 7.29166667,0.683421667 7.29166667,1.16666667 L7.29166667,4.284035 C5.77507,4.56026667 4.56458333,5.75856167 4.30256167,7.29166667 L1.16666667,7.29166667 C0.683421667,7.29166667 0.291666667,7.68342167 0.291666667,8.16666667 C0.291666667,8.64991167 0.683421667,9.04166667 1.16666667,9.04166667 L4.12696667,9.04166667 C4.08437167,9.62441667 4.055975,10.2078667 4.04178833,10.7916667 L2.33333333,10.7916667 C1.85008833,10.7916667 1.45833333,11.1834333 1.45833333,11.6666667 C1.45833333,12.1499 1.85008833,12.5416667 2.33333333,12.5416667 L4.04178833,12.5416667 C4.055975,13.1254667 4.08437167,13.7089167 4.12696667,14.2916667 L1.16666667,14.2916667 C0.683421667,14.2916667 0.291666667,14.6834333 0.291666667,15.1666667 C0.291666667,15.6499 0.683421667,16.0416667 1.16666667,16.0416667 L4.30256167,16.0416667 C4.564595,17.5747833 5.77507,18.7730667 7.29166667,19.0493333 L7.29166667,22.1666667 C7.29166667,22.6499 7.68342167,23.0416667 8.16666667,23.0416667 C8.64991167,23.0416667 9.04166667,22.6499 9.04166667,22.1666667 L9.04166667,19.2224667 C9.62301667,19.2633 10.2069333,19.2904833 10.7916667,19.3040167 L10.7916667,21 C10.7916667,21.4832333 11.1834333,21.875 11.6666667,21.875 C12.1499,21.875 12.5416667,21.4832333 12.5416667,21 L12.5416667,19.3040167 C13.1264,19.2904833 13.7103167,19.2633 14.2916667,19.2224667 L14.2916667,22.1666667 C14.2916667,22.6499 14.6834333,23.0416667 15.1666667,23.0416667 C15.6499,23.0416667 16.0416667,22.6499 16.0416667,22.1666667 L16.0416667,19.0493333 C17.5582167,18.7730667 18.76875,17.5747833 19.0307833,16.0416667 L22.1666667,16.0416667 C22.6499,16.0416667 23.0416667,15.6499 23.0416667,15.1666667 C23.0416667,14.6834333 22.6499,14.2916667 22.1666667,14.2916667 L19.2063667,14.2916667 C19.24895,13.7089167 19.2774167,13.1254667 19.2915333,12.5416667 L21,12.5416667 C21.4832333,12.5416667 21.875,12.1499 21.875,11.6666667 C21.875,11.1834333 21.4832333,10.7916667 21,10.7916667 L19.2915333,10.7916667 C19.2774167,10.2078667 19.24895,9.62441667 19.2063667,9.04166667 L22.1666667,9.04166667 C22.6499,9.04166667 23.0416667,8.64991167 23.0416667,8.16666667 C23.0416667,7.68342167 22.6499,7.29166667 22.1666667,7.29166667 L19.0307833,7.29166667 C18.76875,5.75856167 17.5582167,4.560255 16.0416667,4.284035 L16.0416667,1.16666667 Z M7.73890833,5.98609667 C10.32745,5.69678667 13.0058833,5.69678667 15.5944833,5.98609667 C16.4963167,6.08689667 17.2163833,6.79915833 17.3202167,7.68696833 C17.6295,10.3310667 17.6295,13.0022667 17.3202167,15.6464 C17.2163833,16.5341167 16.4963167,17.2464833 15.5944833,17.3472833 C13.0058833,17.6365 10.32745,17.6365 7.73890833,17.3472833 C6.83698167,17.2464833 6.11693833,16.5341167 6.01309333,15.6464 C5.703845,13.0022667 5.703845,10.3310667 6.01309333,7.68696833 C6.11693833,6.79915833 6.83698167,6.08689667 7.73890833,5.98609667 Z" id="Shape"></path>
                    </g>
                </g>
            </g>
        </g>
    </g>
</svg>