<?xml version="1.0" encoding="UTF-8"?>
<svg width="59px" height="28px" viewBox="0 0 59 28" version="1.1" xmlns="http://www.w3.org/2000/svg" xmlns:xlink="http://www.w3.org/1999/xlink">
    <title>mba logo red</title>
    <defs>
        <linearGradient x1="-17.9241822%" y1="34.7902441%" x2="147.761978%" y2="68.0187779%" id="linearGradient-1">
            <stop stop-color="#331D0C" offset="0%"></stop>
            <stop stop-color="#971B13" offset="27.9534417%"></stop>
            <stop stop-color="#E02124" offset="49.0603885%"></stop>
            <stop stop-color="#F7951D" offset="69.7661529%"></stop>
            <stop stop-color="#FFF200" offset="100%"></stop>
        </linearGradient>
    </defs>
    <g id="vd-v3" stroke="none" stroke-width="1" fill="none" fill-rule="evenodd">
        <g id="mbat-login" transform="translate(-752.000000, -118.000000)" fill="url(#linearGradient-1)" fill-rule="nonzero">
            <g id="Group-9" transform="translate(515.000000, 96.000000)">
                <g id="MBA-logo" transform="translate(237.000000, 22.000000)">
                    <path d="M52.5978723,-1.92024174e-12 C55.9195191,-1.92024174e-12 58.6262219,2.66939992 58.7448794,6.00773668 L58.7489362,6.23636364 L58.7489362,21.5090909 C58.7489362,24.8768006 56.1160478,27.6210385 52.8233722,27.7413416 L52.5978723,27.7454545 L40.026,27.745 L40.745,25.454 L52.5978723,25.4545455 C54.6799197,25.4545455 56.3800719,23.7967828 56.4842981,21.7121235 L56.4893617,21.5090909 L56.4893617,6.23636364 C56.4893617,4.12544346 54.8542736,2.40171451 52.7981279,2.29604289 L52.5978723,2.29090909 L6.15106383,2.29090909 C4.06901642,2.29090909 2.36886431,3.94867179 2.26463805,6.03333107 L2.25957447,6.23636364 L2.25957447,21.5090909 C2.25957447,23.6200111 3.8946626,25.34374 5.9508083,25.4494117 L6.15106383,25.4545455 L35.749,25.454 L41.8774468,6.23636364 L44.9504681,6.23636364 L49.7633617,21.2189091 L47.0066809,21.2189091 L45.8542979,17.164 L40.883234,17.164 L37.5666809,27.7303206 L37.489,27.73 L37.484,27.745 L6.15106383,27.7454545 C2.82941705,27.7454545 0.122714307,25.0760546 0.00405672619,21.7377179 L-1.77308489e-12,21.5090909 L-1.77308489e-12,6.23636364 C-1.77308489e-12,2.86865396 2.63288837,0.124416046 5.92556399,0.0041129828 L6.15106383,-1.92024174e-12 L52.5978723,-1.92024174e-12 Z M11.6217447,6.23636364 L14.2428511,13.5672727 C14.4085532,14.0407273 14.5667234,14.5256364 14.7173617,15.022 C14.868,15.5183636 15.0261702,16.0109091 15.1918723,16.4996364 L15.1918723,16.4996364 L15.2822553,16.4996364 C15.4479574,16.0109091 15.6023617,15.5183636 15.7454681,15.022 C15.8885745,14.5256364 16.0429787,14.0407273 16.2086809,13.5672727 L16.2086809,13.5672727 L18.762,6.23636364 L21.7446383,6.23636364 L21.7446383,21.2189091 L19.3268936,21.2189091 L19.3268936,14.3690909 C19.3268936,14.0178182 19.3381915,13.636 19.3607872,13.2236364 C19.383383,12.8112727 19.4097447,12.3950909 19.4398723,11.9750909 C19.47,11.5550909 19.5076596,11.1427273 19.5528511,10.738 C19.5980426,10.3332727 19.6357021,9.95527273 19.6658298,9.604 L19.6658298,9.604 L19.5754468,9.604 L18.3778723,13.0861818 L15.9601277,19.8214545 L14.4010213,19.8214545 L11.9606809,13.0861818 L10.7857021,9.604 L10.6953191,9.604 C10.7254468,9.95527273 10.7593404,10.3332727 10.797,10.738 C10.8346596,11.1427273 10.8723191,11.5550909 10.9099787,11.9750909 C10.9476383,12.3950909 10.977766,12.8112727 11.0003617,13.2236364 C11.0229574,13.636 11.0342553,14.0178182 11.0342553,14.3690909 L11.0342553,14.3690909 L11.0342553,21.2189091 L8.66170213,21.2189091 L8.66170213,6.23636364 L11.6217447,6.23636364 Z M30.2180426,6.23636364 C30.9862979,6.23636364 31.6905319,6.30127273 32.3307447,6.43109091 C32.9709574,6.56090909 33.5283191,6.76709091 34.0028298,7.04963636 C34.4773404,7.33218182 34.8464043,7.71018182 35.1100213,8.18363636 C35.3736383,8.65709091 35.5054468,9.23745455 35.5054468,9.92472727 C35.5054468,10.6425455 35.3246809,11.3069091 34.9631489,11.9178182 C34.6417872,12.4608485 34.2073538,12.853037 33.6598487,13.0943838 L33.449234,13.1778182 L33.449234,13.2694545 C34.2626809,13.4527273 34.9367872,13.8383636 35.4715532,14.4263636 C36.0063191,15.0143636 36.2737021,15.8123636 36.2737021,16.8203636 C36.2737021,17.5687273 36.1305957,18.2178182 35.844383,18.7676364 C35.5581702,19.3174545 35.1627447,19.7756364 34.6581064,20.1421818 C34.1534681,20.5087273 33.5546809,20.7798182 32.8617447,20.9554545 C32.2842979,21.1018182 31.6650071,21.187197 31.0038723,21.2115909 L30.6021702,21.2189091 L25.4955319,21.2189091 L25.4955319,6.23636364 L30.2180426,6.23636364 Z M30.3310213,14.4149091 L28.1166383,14.4149091 L28.1166383,19.1570909 L30.3310213,19.1570909 C31.415617,19.1570909 32.2516596,18.9547273 32.8391489,18.55 C33.4266383,18.1452727 33.720383,17.5229091 33.720383,16.6829091 C33.720383,15.8887273 33.4341702,15.3121818 32.8617447,14.9532727 C32.2893191,14.5943636 31.4457447,14.4149091 30.3310213,14.4149091 Z M43.4139574,8.29818182 L43.3235745,8.29818182 C43.1126809,9.13818182 42.9017872,9.97436364 42.6908936,10.8067273 C42.5502979,11.3616364 42.4030071,11.9080606 42.2490213,12.446 L42.0130213,13.2465455 L41.4933191,15.0792727 L45.2668085,15.0792727 L44.7471064,13.2465455 C44.5060851,12.4523636 44.2763617,11.6352727 44.0579362,10.7952727 C43.8395106,9.95527273 43.6248511,9.12290909 43.4139574,8.29818182 Z M30.0372766,8.29818182 L28.1166383,8.29818182 L28.1166383,12.4218182 L29.9920851,12.4218182 C31.0314894,12.4218182 31.7809149,12.2309091 32.2403617,11.8490909 C32.6998085,11.4672727 32.9295319,10.9556364 32.9295319,10.3141818 C32.9295319,9.58109091 32.6885106,9.06181818 32.2064681,8.75636364 C31.7244255,8.45090909 31.0013617,8.29818182 30.0372766,8.29818182 Z" id="Combined-Shape"></path>
                </g>
            </g>
        </g>
    </g>
</svg>