<?xml version="1.0" encoding="UTF-8"?>
<svg width="20px" height="14px" viewBox="0 0 20 14" version="1.1" xmlns="http://www.w3.org/2000/svg" xmlns:xlink="http://www.w3.org/1999/xlink">
    <title>Menu</title>
    <g id="vd-v3" stroke="none" stroke-width="1" fill="none" fill-rule="evenodd">
        <g id="brand-overview" transform="translate(-1321.000000, -25.000000)" fill="#212121">
            <g id="Group-4" transform="translate(1317.000000, 18.000000)">
                <g id="Menu" transform="translate(4.666667, 7.000000)">
                    <path d="M18.375,7 C18.375,6.51676667 17.9832333,6.125 17.5,6.125 L1.16666667,6.125 C0.683421667,6.125 0.291666667,6.51676667 0.291666667,7 C0.291666667,7.48323333 0.683421667,7.875 1.16666667,7.875 L17.5,7.875 C17.9832333,7.875 18.375,7.48323333 18.375,7 Z" id="Path"></path>
                    <path d="M18.375,1.16666667 C18.375,0.683421667 17.9832333,0.291666667 17.5,0.291666667 L1.16666667,0.291666667 C0.683421667,0.291666667 0.291666667,0.683421667 0.291666667,1.16666667 C0.291666667,1.64991167 0.683421667,2.04166667 1.16666667,2.04166667 L17.5,2.04166667 C17.9832333,2.04166667 18.375,1.64991167 18.375,1.16666667 Z" id="Path"></path>
                    <path d="M18.375,12.8333333 C18.375,12.3501 17.9832333,11.9583333 17.5,11.9583333 L1.16666667,11.9583333 C0.683421667,11.9583333 0.291666667,12.3501 0.291666667,12.8333333 C0.291666667,13.3165667 0.683421667,13.7083333 1.16666667,13.7083333 L17.5,13.7083333 C17.9832333,13.7083333 18.375,13.3165667 18.375,12.8333333 Z" id="Path"></path>
                </g>
            </g>
        </g>
    </g>
</svg>