<?xml version="1.0" encoding="UTF-8"?>
<svg width="76px" height="29px" viewBox="0 0 76 29" version="1.1" xmlns="http://www.w3.org/2000/svg" xmlns:xlink="http://www.w3.org/1999/xlink">
    <title>next step</title>
    <g id="vd-v3" stroke="none" stroke-width="1" fill="none" fill-rule="evenodd">
        <g id="ideal-media-plan-set-up" transform="translate(-239.000000, -18.000000)" stroke="#FF7B79">
            <path d="M241.54515,19 L304.714835,19 C305.415157,19 306.064464,19.3663072 306.426632,19.9657118 L313.375071,31.4657118 C313.759342,32.1016989 313.759342,32.8983011 313.375071,33.5342882 L306.426632,45.0342882 C306.064464,45.6336928 305.415157,46 304.714835,46 L241.54515,46 C240.440581,46 239.54515,45.1045695 239.54515,44 C239.54515,43.6354129 239.644809,43.2777613 239.833354,42.9657118 L245.531933,33.5342882 C245.916204,32.8983011 245.916204,32.1016989 245.531933,31.4657118 L239.833354,22.0342882 C239.262132,21.088889 239.565463,19.8594249 240.510862,19.2882033 C240.822911,19.0996592 241.180563,19 241.54515,19 Z" id="next-step"></path>
        </g>
    </g>
</svg>