<?xml version="1.0" encoding="UTF-8"?>
<svg width="18px" height="24px" viewBox="0 0 18 24" version="1.1" xmlns="http://www.w3.org/2000/svg" xmlns:xlink="http://www.w3.org/1999/xlink">
    <title>Notification</title>
    <g id="vd-v3" stroke="none" stroke-width="1" fill="none" fill-rule="evenodd">
        <g id="brand-overview" transform="translate(-1256.000000, -20.000000)" fill="#212121">
            <g id="Group-2" transform="translate(1251.000000, 18.000000)">
                <g id="Notification" transform="translate(4.666667, 2.333333)">
                    <path d="M10.5,1.16666667 C10.5,0.52234 9.97768333,0 9.33333333,0 C8.68898333,0 8.16666667,0.52234 8.16666667,1.16666667 L8.16666667,2.04166667 L7.51636667,2.04166667 C4.92042833,2.04166667 2.771895,4.06001167 2.60985667,6.65086333 L2.35201167,10.7732333 C2.25370833,12.3449667 1.72603667,13.85965 0.826466667,15.1522 C0.0136733333,16.3200333 0.737263333,17.9330667 2.150015,18.1025833 L6.125,18.5796333 L6.125,19.8333333 C6.125,21.6052667 7.5614,23.0416667 9.33333333,23.0416667 C11.1052667,23.0416667 12.5416667,21.6052667 12.5416667,19.8333333 L12.5416667,18.5796333 L16.5166167,18.1025833 C17.92945,17.9330667 18.6530167,16.3200333 17.8402,15.1522 C16.9405833,13.85965 16.4129,12.3449667 16.3146667,10.7732333 L16.0568333,6.65086333 C15.8947833,4.06001167 13.74625,2.04166667 11.1503,2.04166667 L10.5,2.04166667 L10.5,1.16666667 Z M7.51636667,3.79166667 C5.84451,3.79166667 4.46079667,5.09153167 4.35643833,6.76011 L4.098605,10.8824333 C3.980305,12.7738333 3.34534667,14.5964 2.262855,16.1518 C2.20411333,16.2362667 2.25640333,16.3528167 2.35852167,16.3650667 L6.719125,16.8883167 C8.45565,17.0966833 10.2110167,17.0966833 11.9474833,16.8883167 L16.3081333,16.3650667 C16.4102167,16.3528167 16.4626,16.2362667 16.4038,16.1518 C15.3213667,14.5964 14.68635,12.7738333 14.56805,10.8824333 L14.3102167,6.76011 C14.2058,5.09153167 12.8221333,3.79166667 11.1503,3.79166667 L7.51636667,3.79166667 Z M9.33333333,21.2916667 C8.52786667,21.2916667 7.875,20.6388 7.875,19.8333333 L7.875,18.9583333 L10.7916667,18.9583333 L10.7916667,19.8333333 C10.7916667,20.6388 10.1388,21.2916667 9.33333333,21.2916667 Z" id="Shape"></path>
                </g>
            </g>
        </g>
    </g>
</svg>