<?xml version="1.0" encoding="UTF-8"?>
<svg width="22px" height="22px" viewBox="0 0 22 22" version="1.1" xmlns="http://www.w3.org/2000/svg" xmlns:xlink="http://www.w3.org/1999/xlink">
    <title>Pin</title>
    <g id="vd-v3" stroke="none" stroke-width="1" fill="none" fill-rule="evenodd">
        <g id="brand-overview" transform="translate(-1303.000000, -403.000000)" fill="#212121">
            <g id="Group" transform="translate(1300.000000, 400.000000)">
                <g id="Pin" transform="translate(3.500000, 3.500000)">
                    <path d="M16.0832,0.845821667 C15.0619,-0.175536667 13.3319667,0.157628333 12.7629833,1.48524833 L10.90495,5.82061667 C9.156,5.47765167 7.27176333,5.98288833 5.915035,7.339605 L3.91993,9.33473333 C3.57821333,9.67645 3.57821333,10.2305 3.91993,10.5721 L6.83111333,13.4834 L0.547866667,19.7666 C0.206161667,20.1083167 0.206161667,20.6623667 0.547866667,21.0040833 C0.889583333,21.3456833 1.44359833,21.3456833 1.785315,21.0040833 L8.06855,14.7207667 L10.97985,17.6320667 C11.1438833,17.7962167 11.3664833,17.8883833 11.5985333,17.8883833 C11.8305833,17.8883833 12.0531833,17.7962167 12.2173333,17.6320667 L14.2123333,15.63695 C15.5691667,14.2802333 16.0743333,12.39595 15.7313333,10.647 L20.0667833,8.78896667 C21.3943333,8.21998333 21.7275333,6.49010833 20.7061167,5.46876167 L16.0832,0.845821667 Z M14.3714667,2.17459667 C14.4527833,1.98494333 14.6998833,1.93734333 14.8458333,2.08325833 L19.46875,6.70619833 C19.6145833,6.85210167 19.5669833,7.09923667 19.3774,7.18051833 L14.3427667,9.33823333 C13.91775,9.52035 13.7078667,10.0018333 13.8637333,10.43735 C14.3432333,11.7770333 14.0452667,13.3291667 12.9749667,14.3995833 L11.5985333,15.7759 L5.776085,9.95341667 L7.15247167,8.5771 C8.22278333,7.50673 9.77503333,7.20879833 11.1147167,7.68829833 C11.5501167,7.84415333 12.0316,7.63424667 12.2138333,7.20916 L14.3714667,2.17459667 Z" id="Shape"></path>
                </g>
            </g>
        </g>
    </g>
</svg>