<?xml version="1.0" encoding="UTF-8"?>
<svg width="22px" height="23px" viewBox="0 0 22 23" version="1.1" xmlns="http://www.w3.org/2000/svg" xmlns:xlink="http://www.w3.org/1999/xlink">
    <title>portfolio plan</title>
    <g id="vd-v3" stroke="none" stroke-width="1" fill="none" fill-rule="evenodd">
        <g id="new-plan-options" transform="translate(-1041.000000, -113.000000)" fill="#212121">
            <g id="Group-56" transform="translate(1010.000000, 50.000000)">
                <g id="Group-18-Copy" transform="translate(16.000000, 56.000000)">
                    <g id="Group" transform="translate(12.000000, 4.000000)">
                        <g id="Medkit" transform="translate(3.500000, 3.500000)">
                            <path d="M4.95833333,2.8714 L4.95833333,4.31547667 C4.527495,4.34796833 4.09686667,4.38426333 3.66650667,4.42433833 C1.71924667,4.60570833 0.230253333,6.23982333 0.230253333,8.19548333 L0.230253333,17.4711833 C0.230253333,19.4268667 1.71924667,21.0610167 3.66650667,21.2423167 C8.21228333,21.6657 12.7876,21.6657 17.3335167,21.2423167 C19.2806833,21.0610167 20.7697,19.4268667 20.7697,17.4711833 L20.7697,8.19548333 C20.7697,6.23982333 19.2806833,4.60570833 17.3335167,4.42433833 C16.9031333,4.38426333 16.4725167,4.34798 16.0416667,4.31547667 L16.0416667,2.8714 C16.0416667,1.860775 15.30235,1.00223667 14.3028667,0.85232 L12.87965,0.638831667 C11.3020833,0.402196667 9.69791667,0.402196667 8.12037333,0.638831667 L6.69713333,0.85232 C5.69769667,1.00223667 4.95833333,1.860775 4.95833333,2.8714 Z M12.6200667,2.36947667 C11.2145833,2.15864833 9.78541667,2.15864833 8.37993333,2.36947667 L6.95672833,2.58295333 C6.81395167,2.60437333 6.70833333,2.727025 6.70833333,2.8714 L6.70833333,4.20442167 C9.2344,4.07426833 11.7656,4.07426833 14.2916667,4.20442167 L14.2916667,2.8714 C14.2916667,2.727025 14.1860833,2.60437333 14.0432833,2.58295333 L12.6200667,2.36947667 Z M17.1711167,6.16680167 C12.73335,5.753475 8.26665,5.753475 3.82880167,6.16680167 C2.78126333,6.26437 1.98025333,7.14344167 1.98025333,8.19548333 L1.98025333,8.45833333 L19.0197,8.45833333 L19.0197,8.19548333 C19.0197,7.14344167 18.2186667,6.26437 17.1711167,6.16680167 Z M19.0197,10.2083333 L1.98025333,10.2083333 L1.98025333,17.4711833 C1.98025333,18.5232833 2.78126333,19.4023667 3.82880167,19.4999 C8.26665,19.91325 12.73335,19.91325 17.1711167,19.4999 C18.2186667,19.4023667 19.0197,18.5232833 19.0197,17.4711833 L19.0197,10.2083333 Z" id="Shape"></path>
                        </g>
                    </g>
                </g>
            </g>
        </g>
    </g>
</svg>