<?xml version="1.0" encoding="UTF-8"?>
<svg width="18px" height="18px" viewBox="0 0 18 18" version="1.1" xmlns="http://www.w3.org/2000/svg" xmlns:xlink="http://www.w3.org/1999/xlink">
    <title>present</title>
    <g id="vd-v1" stroke="none" stroke-width="1" fill="none" fill-rule="evenodd">
        <g id="My-deck" transform="translate(-1258.000000, -83.000000)" fill="#212121">
            <g id="Group-8" transform="translate(1240.000000, 74.000000)">
                <g id="Group-3" transform="translate(12.000000, 4.000000)">
                    <g id="Play" transform="translate(5.833333, 4.666667)">
                        <path d="M16.6436667,7.56443333 C17.8008833,8.45985 17.8008833,10.2068167 16.6436667,11.1022333 C13.1465833,13.8082 9.24151667,15.9411 5.07470833,17.4209 L4.31349333,17.6913333 C2.85716667,18.2085167 1.318905,17.2232667 1.12175,15.7199 C0.570896667,11.5196667 0.570896667,7.147 1.12175,2.94676667 C1.318905,1.44345833 2.85717833,0.458138333 4.31349333,0.975368333 L5.07470833,1.24573167 C9.24151667,2.725625 13.1465833,4.85846667 16.6436667,7.56443333 Z M15.5727833,9.71821667 C15.82455,9.52338333 15.82455,9.14328333 15.5727833,8.94845 C12.22235,6.35602333 8.48108333,4.31263 4.48901833,2.89480333 L3.72780333,2.62445167 C3.348695,2.48980667 2.913015,2.746415 2.85689833,3.174325 C2.325855,7.22353333 2.325855,11.4431333 2.85689833,15.4924 C2.913015,15.9202167 3.348695,16.1768833 3.72779167,16.04225 L4.48901833,15.7719333 C8.48108333,14.3540833 12.22235,12.3106667 15.5727833,9.71821667 Z" id="Shape"></path>
                    </g>
                </g>
            </g>
        </g>
    </g>
</svg>