<?xml version="1.0" encoding="UTF-8"?>
<svg width="19px" height="25px" viewBox="0 0 19 25" version="1.1" xmlns="http://www.w3.org/2000/svg" xmlns:xlink="http://www.w3.org/1999/xlink">
    <title>remove_user</title>
    <g id="vd-v3" stroke="none" stroke-width="1" fill="none" fill-rule="evenodd">
        <g id="remove-user" transform="translate(-729.000000, -354.000000)">
            <g id="Group-2" transform="translate(576.000000, 348.000000)">
                <g id="Group-10" transform="translate(13.000000, 0.000000)">
                    <g id="Group-6" transform="translate(121.000000, 0.000000)">
                        <g id="Group-36" transform="translate(14.000000, 4.000000)">
                            <g id="Group-35" transform="translate(5.250000, 2.625000)" fill="#212121">
                                <path d="M6.70833333,0 C6.22508833,0 5.83333333,0.391755 5.83333333,0.875 L5.83333333,1.75 L0.875,1.75 C0.391755,1.75 5.33129096e-13,2.141755 5.33129096e-13,2.625 C5.33129096e-13,3.108245 0.391755,3.5 0.875,3.5 L17.2083333,3.5 C17.6915667,3.5 18.0833333,3.108245 18.0833333,2.625 C18.0833333,2.141755 17.6915667,1.75 17.2083333,1.75 L12.25,1.75 L12.25,0.875 C12.25,0.391755 11.8582333,0 11.375,0 L6.70833333,0 Z" id="Path" fill-rule="nonzero"></path>
                                <path d="M10.27915,14.875 L11.9936833,16.58965 C12.3354,16.9313667 12.3354,17.4853 11.9936833,17.8270167 C11.6519667,18.1687333 11.0980333,18.1687333 10.7563167,17.8270167 L9.04166667,16.1124833 L7.32701667,17.8270167 C6.9853,18.1687333 6.43133167,18.1687333 6.08962667,17.8270167 C5.74791,17.4853 5.74791,16.9313667 6.08962667,16.58965 L7.80418333,14.875 L6.089615,13.16035 C5.74791,12.8186333 5.74791,12.2647 6.089615,11.9229833 C6.43132,11.5812667 6.9853,11.5812667 7.32701667,11.9229833 L9.04166667,13.6375167 L10.7563167,11.9229833 C11.0980333,11.5812667 11.6519667,11.5812667 11.9936833,11.9229833 C12.3354,12.2647 12.3354,12.8186333 11.9936833,13.16035 L10.27915,14.875 Z" id="Path" fill-rule="nonzero"></path>
                                <path d="M2.03165667,6.61171 C2.08090167,6.168575 2.45546,5.83333333 2.90131333,5.83333333 L15.1820667,5.83333333 C15.62785,5.83333333 16.0024667,6.168575 16.0517,6.61171 L16.28515,8.71327333 C16.7084167,12.5227667 16.7084167,16.3675167 16.28515,20.1770333 L16.2621667,20.384 C16.0941667,21.8961167 14.9221333,23.1019833 13.4153833,23.3129167 C10.5137667,23.71915 7.56956667,23.71915 4.66792667,23.3129167 C3.16113,23.1019833 1.98916667,21.8961167 1.82114333,20.384 L1.79816,20.1770333 C1.37487,16.3675167 1.37487,12.5227667 1.79816,8.71327333 L2.03165667,6.61171 Z M3.68447333,7.58333333 L3.53745,8.90653167 C3.12844,12.5876333 3.12844,16.3027667 3.53745,19.9838333 L3.56043333,20.1906833 C3.64012833,20.9078333 4.19594,21.4797333 4.91055833,21.5798333 C7.65123333,21.9634333 10.4321,21.9634333 13.1727167,21.5798333 C13.8874167,21.4797333 14.4432167,20.9078333 14.5229,20.1906833 L14.5458833,19.9838333 C14.9549167,16.3027667 14.9549167,12.5876333 14.5458833,8.90653167 L14.3988833,7.58333333 L3.68447333,7.58333333 Z" id="Shape"></path>
                            </g>
                            <rect id="Rectangle" x="0" y="0" width="28" height="28"></rect>
                        </g>
                    </g>
                </g>
            </g>
        </g>
    </g>
</svg>