<?xml version="1.0" encoding="UTF-8"?>
<svg width="20px" height="22px" viewBox="0 0 20 22" version="1.1" xmlns="http://www.w3.org/2000/svg" xmlns:xlink="http://www.w3.org/1999/xlink">
    <title>reset</title>
    <g id="vd-v3" stroke="none" stroke-width="1" fill="none" fill-rule="evenodd">
        <g id="media-planner" transform="translate(-1156.000000, -160.000000)" fill="#212121" fill-rule="nonzero">
            <g id="Group-9" transform="translate(1140.000000, 153.000000)">
                <g id="Group" transform="translate(12.000000, 4.000000)">
                    <g id="Refresh" transform="translate(3.500000, 3.500000)">
                        <path d="M4.13634667,6.02323167 C3.88525667,5.95698833 3.67656333,5.78264167 3.56671,5.54733667 C3.45685667,5.31204333 3.457195,5.040105 3.56763167,4.80506833 L5.50517333,0.681613333 C5.64956,0.374336667 5.95866833,0.178313333 6.29819167,0.17873266 C6.63770333,0.179153333 6.94632167,0.375935 7.08995,0.683573333 L7.944685,2.51435333 C7.97524,2.50233667 8.00679833,2.49193 8.03926667,2.48322667 C13.1111167,1.12421167 18.3244833,4.13410667 19.6834167,9.20605 C21.0424667,14.2779 18.0325833,19.4912667 12.9607333,20.8502 C7.88877833,22.20925 2.67549333,19.1993667 1.31647833,14.1274 C0.88431,12.5146 0.89404,10.8848833 1.27254167,9.36973333 C1.38966333,8.90085 1.86468333,8.61571667 2.33352,8.73285 C2.80236833,8.84998333 3.08749,9.32505 2.97036833,9.79381667 C2.66203,11.02815 2.653525,12.3559333 3.00685,13.6745 C4.11570833,17.8129 8.36943333,20.2687333 12.5077167,19.1598167 C16.6461167,18.0510167 19.10195,13.7972333 17.99315,9.65895 C16.9023167,5.588275 12.7688167,3.145485 8.69528333,4.122055 L9.55768333,5.96923833 C9.7013,6.27687667 9.65393333,6.63982667 9.43635,6.90039 C9.21865,7.16094167 8.86993333,7.272055 8.54163333,7.18544167 L4.13634667,6.02323167 Z" id="Path"></path>
                    </g>
                </g>
            </g>
        </g>
    </g>
</svg>