<?xml version="1.0" encoding="UTF-8"?>
<svg width="13px" height="24px" viewBox="0 0 13 24" version="1.1" xmlns="http://www.w3.org/2000/svg" xmlns:xlink="http://www.w3.org/1999/xlink">
    <title>run plan</title>
    <g id="vd-v3" stroke="none" stroke-width="1" fill="none" fill-rule="evenodd">
        <g id="create-opt-plan1" transform="translate(-1224.000000, -214.000000)" fill="#212121">
            <g id="Group" transform="translate(1204.000000, 208.000000)">
                <g id="Group" transform="translate(12.000000, 4.000000)">
                    <g id="Lightning" transform="translate(8.166667, 2.333333)">
                        <path d="M3.42892667,0.597648333 C5.24825,0.390576667 7.08516667,0.390576667 8.90446667,0.597648333 L10.76565,0.809491667 C11.0322333,0.839836667 11.2701167,0.990815 11.4111667,1.219085 C11.5521,1.44736667 11.5805667,1.72771667 11.4884,1.97967 L8.91881667,8.99900167 L11.6666667,8.99900167 C11.9536667,8.99900167 12.2224667,9.13978333 12.3859167,9.3758 C12.5493667,9.6117 12.5867,9.91281667 12.4857833,10.1816167 L12.26365,10.77335 C10.72225,14.87885 8.54291667,18.71555 5.80615,22.14205 L5.35033333,22.7127833 C5.1184,23.0031667 4.72815,23.1154 4.37733333,22.9924333 C4.02651667,22.8695833 3.79166667,22.5383667 3.79166667,22.1666667 L3.79166667,13.8222 L1.666665,13.8222 C1.21339167,13.8222 0.835158333,13.47605 0.795095,13.02455 L0.652026667,11.41245 C0.409966667,8.68485333 0.409966667,5.94119167 0.652026667,3.21360667 L0.795095,1.60153 C0.831833333,1.18752667 1.15474333,0.856496667 1.56770833,0.809491667 L3.42892667,0.597648333 Z M8.70648333,2.336425 C7.01878333,2.14432167 5.31463333,2.14432167 3.62681667,2.336425 L2.47511833,2.46751167 L2.39517833,3.368295 C2.16225333,5.99295667 2.16225333,8.63308833 2.39517833,11.25775 L2.46745333,12.0722 L4.66666667,12.0722 C5.1499,12.0722 5.54166667,12.4639667 5.54166667,12.9472 L5.54166667,19.6026833 C7.52745,16.87 9.15961667,13.8952333 10.39815,10.7489667 L7.66663333,10.7489667 C7.38091667,10.7489667 7.11316667,10.6094333 6.94948333,10.3751667 C6.7858,10.1410167 6.74671667,9.84153333 6.84495,9.5732 L9.46271667,2.42249 L8.70648333,2.336425 Z" id="Shape"></path>
                    </g>
                </g>
            </g>
        </g>
    </g>
</svg>