<?xml version="1.0" encoding="UTF-8"?>
<svg width="4px" height="18px" viewBox="0 0 4 18" version="1.1" xmlns="http://www.w3.org/2000/svg" xmlns:xlink="http://www.w3.org/1999/xlink">
    <title>scenario options</title>
    <g id="vd-v3" stroke="none" stroke-width="1" fill="none" fill-rule="evenodd">
        <g id="ideal-media-plan-FY-summary" transform="translate(-284.000000, -139.000000)" fill="#212121" fill-rule="nonzero" stroke="#212121" stroke-width="1.75">
            <g id="Group" transform="translate(272.000000, 134.000000)">
                <g id="Other-2" transform="translate(12.833333, 5.833333)">
                    <path d="M1.16666667,0.291666667 C1.6499,0.291666667 2.04166667,0.683421667 2.04166667,1.16666667 C2.04166667,1.64991167 1.6499,2.04166667 1.16666667,2.04166667 C0.683433333,2.04166667 0.291666667,1.64991167 0.291666667,1.16666667 C0.291666667,0.683421667 0.683433333,0.291666667 1.16666667,0.291666667 Z M1.16666667,7.29166667 C1.6499,7.29166667 2.04166667,7.68343333 2.04166667,8.16666667 C2.04166667,8.6499 1.6499,9.04166667 1.16666667,9.04166667 C0.683433333,9.04166667 0.291666667,8.6499 0.291666667,8.16666667 C0.291666667,7.68343333 0.683433333,7.29166667 1.16666667,7.29166667 Z M1.16666667,14.2916667 C1.6499,14.2916667 2.04166667,14.6834333 2.04166667,15.1666667 C2.04166667,15.6499 1.6499,16.0416667 1.16666667,16.0416667 C0.683433333,16.0416667 0.291666667,15.6499 0.291666667,15.1666667 C0.291666667,14.6834333 0.683433333,14.2916667 1.16666667,14.2916667 Z" id="Shape"></path>
                </g>
            </g>
        </g>
    </g>
</svg>