<?xml version="1.0" encoding="UTF-8"?>
<svg width="18px" height="18px" viewBox="0 0 18 18" version="1.1" xmlns="http://www.w3.org/2000/svg" xmlns:xlink="http://www.w3.org/1999/xlink">
    <title>Search</title>
    <g id="vd-v3" stroke="none" stroke-width="1" fill="none" fill-rule="evenodd">
        <g id="User-Management" transform="translate(-589.000000, -23.000000)" fill="#212121">
            <g id="Group-12" transform="translate(570.000000, 14.000000)">
                <g id="Group" transform="translate(16.000000, 6.000000)">
                    <g id="Search" transform="translate(3.000000, 3.000000)">
                        <path d="M11.3851,12.4458 C8.7348,14.5685 4.85537,14.4014 2.39858,11.9446 C-0.23746,9.3086 -0.23746,5.0347 2.39858,2.39866 C5.03462,-0.23738 9.3085,-0.23738 11.9445,2.39866 C14.4013,4.85544 14.5684,8.7349 12.4457,11.3851 L17.6014,16.5408 C17.8943,16.8337 17.8943,17.3085 17.6014,17.6014 C17.3085,17.8943 16.8336,17.8943 16.5407,17.6014 L11.3851,12.4458 Z M3.45924,10.8839 C1.40899,8.8337 1.40899,5.50957 3.45924,3.45932 C5.5095,1.40907 8.8336,1.40907 10.8839,3.45932 C12.9326,5.50807 12.9341,8.8288 10.8884,10.8794 C10.8869,10.8809 10.8854,10.8824 10.8838,10.8839 C10.8823,10.8854 10.8808,10.8869 10.8794,10.8884 C8.8287,12.9342 5.50799,12.9327 3.45924,10.8839 Z" id="Shape"></path>
                    </g>
                </g>
            </g>
        </g>
    </g>
</svg>