<?xml version="1.0" encoding="UTF-8"?>
<svg width="22px" height="25px" viewBox="0 0 22 25" version="1.1" xmlns="http://www.w3.org/2000/svg" xmlns:xlink="http://www.w3.org/1999/xlink">
    <title>select global</title>
    <g id="vd-v1" stroke="none" stroke-width="1" fill="none" fill-rule="evenodd">
        <g id="select-BU" transform="translate(-663.000000, -118.000000)" fill="#212121">
            <g id="Group" transform="translate(648.000000, 112.000000)">
                <g id="Group" transform="translate(12.000000, 4.000000)">
                    <g id="Globe" transform="translate(3.296280, 2.129683)">
                        <path d="M18.8178871,0.25627875 C19.1594871,0.59798375 19.1594871,1.15201042 18.8178871,1.49371542 L18.1756371,2.13590708 C22.0128038,6.60550042 21.8144704,13.3463838 17.5804038,17.5804504 C15.5819038,19.5788338 13.0250371,20.6781838 10.4120538,20.8786171 L10.4120538,22.6621004 L12.4537204,22.6621004 C12.9369538,22.6621004 13.3287204,23.0537504 13.3287204,23.5371004 C13.3287204,24.0203338 12.9369538,24.4121004 12.4537204,24.4121004 L6.62038708,24.4121004 C6.13714208,24.4121004 5.74538708,24.0203338 5.74538708,23.5371004 C5.74538708,23.0537504 6.13714208,22.6621004 6.62038708,22.6621004 L8.66205375,22.6621004 L8.66205375,20.8785004 C6.32140542,20.6989504 4.02565042,19.7980504 2.13590708,18.1756838 L1.49371542,18.8178171 C1.15201042,19.1595338 0.59798375,19.1595338 0.25627875,18.8178171 C-0.08542625,18.4761004 -0.08542625,17.9220504 0.25627875,17.5804504 L1.08124042,16.7553838 C1.65924208,16.1774171 2.55742375,16.2069338 3.12011875,16.7112838 C4.94241708,18.3443838 7.23781042,19.1612838 9.53355375,19.1621004 L9.53705375,19.1621004 L9.54078708,19.1621004 C12.0028038,19.1610504 14.4645871,18.2213004 16.3429204,16.3429671 C19.9746371,12.7112504 20.0974871,6.89867208 16.7112371,3.12011875 C16.2070038,2.55742375 16.1773704,1.65924208 16.7554538,1.08124042 L17.5804038,0.25627875 C17.9221204,-0.08542625 18.4761704,-0.08542625 18.8178871,0.25627875 Z" id="Path" fill-rule="nonzero"></path>
                        <path d="M1.66205375,9.53710042 C1.66205375,5.18781375 5.18781375,1.66205375 9.53705375,1.66205375 C13.8862704,1.66205375 17.4120538,5.18781375 17.4120538,9.53710042 C17.4120538,13.8863171 13.8862704,17.4121004 9.53705375,17.4121004 C5.18781375,17.4121004 1.66205375,13.8863171 1.66205375,9.53710042 Z M9.53705375,3.41205375 C6.15430375,3.41205375 3.41205375,6.15431542 3.41205375,9.53710042 C3.41205375,9.92770042 3.44862875,10.3097837 3.51852375,10.6800837 C3.99839708,10.1568337 4.68774542,9.82876708 5.45372042,9.82876708 C6.90346708,9.82876708 8.07872042,11.0039504 8.07872042,12.4537671 C8.07872042,13.5297837 7.43123208,14.4546004 6.50460708,14.8599004 C7.39869375,15.3703171 8.43385375,15.6621004 9.53705375,15.6621004 C12.5043538,15.6621004 14.9787371,13.5520671 15.5418871,10.7506671 C14.7618538,11.9512837 13.4088704,12.7454337 11.8703871,12.7454337 C9.45410375,12.7454337 7.49538708,10.7866004 7.49538708,8.37038708 C7.49538708,5.95413875 9.45410375,3.99538708 11.8703871,3.99538708 C11.9713038,3.99538708 12.0714038,3.99880542 12.1705704,4.00552542 C11.3728038,3.62504042 10.4798371,3.41205375 9.53705375,3.41205375 Z M9.24538708,8.37038708 C9.24538708,6.92064042 10.4206871,5.74538708 11.8703871,5.74538708 C13.3200871,5.74538708 14.4953871,6.92064042 14.4953871,8.37038708 C14.4953871,9.82013375 13.3200871,10.9954337 11.8703871,10.9954337 C10.4206871,10.9954337 9.24538708,9.82013375 9.24538708,8.37038708 Z M5.45372042,11.5787671 C4.97047542,11.5787671 4.57872042,11.9704171 4.57872042,12.4537671 C4.57872042,12.9370004 4.97047542,13.3287671 5.45372042,13.3287671 C5.93696542,13.3287671 6.32872042,12.9370004 6.32872042,12.4537671 C6.32872042,11.9704171 5.93696542,11.5787671 5.45372042,11.5787671 Z" id="Shape"></path>
                    </g>
                </g>
            </g>
        </g>
    </g>
</svg>