<?xml version="1.0" encoding="UTF-8"?>
<svg width="11px" height="8px" viewBox="0 0 11 8" version="1.1" xmlns="http://www.w3.org/2000/svg" xmlns:xlink="http://www.w3.org/1999/xlink">
    <title>selected black</title>
    <g id="vd-v3" stroke="none" stroke-width="1" fill="none" fill-rule="evenodd">
        <g id="brand-overview-response-curves-copy" transform="translate(-345.000000, -945.000000)">
            <g id="Group" transform="translate(340.000000, 937.000000)">
                <g id="Group" transform="translate(2.000000, 4.000000)">
                    <g id="Check" transform="translate(3.000000, 4.000000)"></g>
                    <path d="M12.8939719,6.56066163 L8.22730678,11.2273068 C7.93439708,11.5202165 7.55052892,11.66665 7.16666417,11.66665 C6.78282563,11.66665 6.39896418,11.5202344 6.10600655,11.2273068 L3.43932781,8.56062804 C3.14643007,8.2677203 3.00000167,7.88385491 3.00000167,7.50000167 C3.00000167,7.11614509 3.14643007,6.7322797 3.43932781,6.43937196 C3.73222118,6.14646859 4.11611053,6.00001667 4.50000167,6.00001667 C4.88388947,6.00001667 5.26777882,6.14646859 5.56065298,6.43935275 L7.16666336,8.04533073 L10.7727053,4.43932781 C11.065613,4.14643007 11.4494784,4.00000167 11.8333333,4.00000167 C13.5539635,4.7938843 13.3333167,5.20595693 13.3333167,5.50000167 C13.3333167,5.88388947 13.1868647,6.26777882 12.8939719,6.56066163 Z" id="Path" fill="#212121"></path>
                </g>
            </g>
        </g>
    </g>
</svg>