<?xml version="1.0" encoding="UTF-8"?>
<svg width="23px" height="20px" viewBox="0 0 23 20" version="1.1" xmlns="http://www.w3.org/2000/svg" xmlns:xlink="http://www.w3.org/1999/xlink">
    <title>Send</title>
    <g id="vd-v3" stroke="none" stroke-width="1" fill="none" fill-rule="evenodd">
        <g id="invite-global-user" transform="translate(-995.000000, -113.000000)" fill="#212121">
            <g id="Group-7" transform="translate(978.000000, 104.000000)">
                <g id="Group" transform="translate(14.000000, 5.000000)">
                    <g id="Send" transform="translate(3.500000, 4.375000)">
                        <path d="M21.875,9.625 C21.875,9.9428 21.7026833,10.2355167 21.4249,10.3898667 L18.7622167,11.8692 C13.4989167,14.7932167 7.95053,17.1718167 2.20358833,18.9676667 L1.42766167,19.2102167 C1.16197667,19.2931667 0.872643333,19.2448667 0.648375,19.0800167 C0.424106667,18.91505 0.291666667,18.6533667 0.291666667,18.375 L0.291666667,11.6666667 C0.291666667,11.2105 0.642145,10.8308667 1.09688833,10.7944667 L1.36210667,10.7732333 C3.87214333,10.57245 6.36284833,10.1883833 8.8144,9.62465 C6.32842,9.0531 3.80219,8.66623333 1.25638333,8.46801667 L1.09870833,8.45565 C0.643195,8.42018333 0.291666667,8.0402 0.291666667,7.58333333 L0.291666667,0.875011667 C0.291666667,0.596656667 0.424106667,0.334903333 0.648375,0.17003 C0.872643333,0.005145 1.16197667,-0.04319 1.42766167,0.0398416667 L2.20357667,0.28231 C7.95053,2.07823 13.4989167,4.45676 18.7622167,7.3808 L21.4249,8.86013333 C21.7026833,9.01448333 21.875,9.3072 21.875,9.625 Z M19.1983167,9.625 L17.9123,8.91065 C12.8632,6.10555167 7.54654833,3.81267833 2.04166667,2.06603833 L2.04166667,6.77783167 C5.46009333,7.08614667 8.84135,7.72356667 12.13835,8.6814 L12.4940667,8.78476667 C12.8682167,8.89338333 13.12535,9.23626667 13.125,9.62581667 C13.12465,10.0153667 12.8668167,10.3577833 12.4924333,10.4657 L12.03685,10.5971833 C8.77193333,11.5388 5.425035,12.1664667 2.04166667,12.4716667 L2.04166667,17.18395 C7.54653667,15.4373333 12.8632,13.1444833 17.9123,10.3394667 L19.1983167,9.625 Z" id="Shape"></path>
                    </g>
                </g>
            </g>
        </g>
    </g>
</svg>