<?xml version="1.0" encoding="UTF-8"?>
<svg width="25px" height="24px" viewBox="0 0 25 24" version="1.1" xmlns="http://www.w3.org/2000/svg" xmlns:xlink="http://www.w3.org/1999/xlink">
    <title>share</title>
    <g id="vd-v3" stroke="none" stroke-width="1" fill="none" fill-rule="evenodd">
        <g id="menu" transform="translate(-1149.000000, -216.000000)" fill="#212121">
            <g id="Group-34" transform="translate(1113.000000, 36.000000)">
                <g id="Group-22" transform="translate(34.000000, 178.000000)">
                    <g id="Share-box" transform="translate(2.984222, 2.916670)">
                        <path d="M5.4743675,14.6424803 C5.46471917,15.0439303 5.72956417,15.4004636 6.11671083,15.507097 C6.50386917,15.6137303 6.9139175,15.4431636 7.1112125,15.093397 L8.1639075,13.2273136 C9.41231083,11.014147 11.8975442,9.80174696 14.4101942,10.1798636 L14.5843775,10.2061136 C14.6157608,10.9968803 14.6602108,11.7874136 14.7177275,12.5771303 L14.7969442,13.6628303 C14.8612275,14.5457636 15.8457775,15.0393803 16.5917442,14.5626803 C19.0390608,12.9988803 21.1665942,10.984047 22.8609442,8.62528029 L23.3930608,7.88451696 C23.6122775,7.57946862 23.6122775,7.16859196 23.3930608,6.86353196 L22.8609442,6.12278029 C21.1665942,3.76406029 19.0390608,1.74912196 16.5917442,0.185368622 C15.8457775,-0.291308045 14.8612275,0.202273622 14.7969442,1.08521862 L14.7177275,2.17096529 C14.6712942,2.80765029 14.6334942,3.44480196 14.6040942,4.08224529 L13.4161942,4.08224529 C9.14071083,4.08224529 5.64624083,7.49369529 5.54348083,11.7679303 L5.4743675,14.6424803 Z M14.6707108,8.44937029 C11.8481942,8.02456362 9.05251083,9.16089696 7.32087417,11.3523636 C7.62608583,8.24539029 10.2449608,5.83224529 13.4161942,5.83224529 L15.4446775,5.83224529 C15.9162442,5.83224529 16.3031108,5.45849196 16.3192108,4.98715862 C16.3498942,4.09022529 16.3978442,3.19373529 16.4631775,2.29820196 L16.4694775,2.21133196 C18.3867775,3.56660196 20.0671275,5.23305696 21.4397108,7.14376529 L21.6050275,7.37403029 L21.4397108,7.60429529 C20.0671275,9.51498029 18.3867775,11.181447 16.4694775,12.5367636 L16.4631775,12.449847 C16.3896775,11.4419636 16.3381108,10.4329136 16.3084775,9.42339696 C16.2959942,9.00036362 15.9826275,8.64681696 15.5640275,8.58382862 L14.6707108,8.44937029 Z" id="Shape"></path>
                        <path d="M19.9306275,17.3965136 C20.0682942,16.2201636 20.1653608,15.040197 20.2220608,13.8588303 C20.2281275,13.7309636 20.2861108,13.611147 20.3821275,13.526447 C20.8060942,13.1521803 21.2168775,12.7633303 21.6136608,12.360597 C21.7629942,12.209047 22.0237442,12.3149803 22.0192529,12.5276636 C21.9827942,14.221547 21.8660108,15.914147 21.6688442,17.599747 C21.3928108,19.959447 19.4977942,21.8086136 17.1503442,22.070997 C13.1060942,22.5229636 8.92546083,22.5229636 4.8811525,22.070997 C2.53376083,21.8086136 0.6386975,19.959447 0.3627225,17.599747 C-0.1209075,13.4647303 -0.1209075,9.28748029 0.3627225,5.15246362 C0.6386975,2.79284529 2.53376083,0.943666955 4.8811525,0.681318622 C7.5539625,0.382593622 10.2862608,0.281280289 12.9994608,0.377401955 C13.2278942,0.385486955 13.3851608,0.609113622 13.3565775,0.835913622 C13.3507442,0.883140289 13.3459608,0.930915289 13.3424608,0.979203622 L13.2826108,1.80032696 C13.2688442,1.98884862 13.1079608,2.13227862 12.9190775,2.12565196 C10.2974608,2.03367196 7.65713083,2.13195196 5.07553083,2.42048029 C3.5237475,2.59391696 2.28067583,3.81847362 2.10088083,5.35575529 C1.6330475,9.35573029 1.6330475,13.396597 2.10088083,17.3965136 C2.28067583,18.9338303 3.5237475,20.1583636 5.07553083,20.3317303 C8.9906775,20.769347 13.0408775,20.769347 16.9559775,20.3317303 C18.5077608,20.1583636 19.7508442,18.9338303 19.9306275,17.3965136 Z" id="Path" fill-rule="nonzero"></path>
                    </g>
                </g>
            </g>
        </g>
    </g>
</svg>