<?xml version="1.0" encoding="UTF-8"?>
<svg width="32px" height="32px" viewBox="0 0 32 32" version="1.1" xmlns="http://www.w3.org/2000/svg" xmlns:xlink="http://www.w3.org/1999/xlink">
    <title>show</title>
    <g id="show" stroke="none" stroke-width="1" fill="none" fill-rule="evenodd">
        <g id="Eye" transform="translate(2.666667, 6.666667)" fill="#212121">
            <path d="M8.33333333,9.33333333 C8.33333333,6.57190667 10.5719067,4.33333333 13.3333333,4.33333333 C16.0948,4.33333333 18.3333333,6.57190667 18.3333333,9.33333333 C18.3333333,12.0948 16.0948,14.3333333 13.3333333,14.3333333 C10.5719067,14.3333333 8.33333333,12.0948 8.33333333,9.33333333 Z M13.3333333,6.33333333 C11.6765333,6.33333333 10.3333333,7.67653333 10.3333333,9.33333333 C10.3333333,10.9901333 11.6765333,12.3333333 13.3333333,12.3333333 C14.9901333,12.3333333 16.3333333,10.9901333 16.3333333,9.33333333 C16.3333333,7.67653333 14.9901333,6.33333333 13.3333333,6.33333333 Z" id="Shape"></path>
            <path d="M3.09790667,7.52853333 C2.53908,8.33373333 2.33333333,8.9636 2.33333333,9.33333333 C2.33333333,9.70306667 2.53908,10.3329333 3.09790667,11.1381333 C3.63809333,11.9165333 4.44104,12.7604 5.45689333,13.54 C7.49304,15.1028 10.2846,16.3333333 13.3333333,16.3333333 C16.382,16.3333333 19.1736,15.1028 21.2097333,13.54 C22.2256,12.7604 23.0285333,11.9165333 23.5688,11.1381333 C24.1276,10.3329333 24.3333333,9.70306667 24.3333333,9.33333333 C24.3333333,8.9636 24.1276,8.33373333 23.5688,7.52853333 C23.0285333,6.75013333 22.2256,5.90629333 21.2097333,5.12662667 C19.1736,3.56389333 16.382,2.33333333 13.3333333,2.33333333 C10.2846,2.33333333 7.49304,3.56389333 5.45689333,5.12662667 C4.44104,5.90629333 3.63809333,6.75013333 3.09790667,7.52853333 Z M4.23921333,3.54004 C6.5462,1.76944 9.75464,0.333333333 13.3333333,0.333333333 C16.912,0.333333333 20.1204,1.76944 22.4274667,3.54004 C23.5832,4.42704 24.5376,5.41658667 25.2118667,6.3882 C25.8674667,7.33293333 26.3333333,8.36973333 26.3333333,9.33333333 C26.3333333,10.2969333 25.8674667,11.3337333 25.2118667,12.2785333 C24.5376,13.2501333 23.5832,14.2396 22.4274667,15.1266667 C20.1204,16.8972 16.912,18.3333333 13.3333333,18.3333333 C9.75464,18.3333333 6.5462,16.8972 4.23921333,15.1266667 C3.08349333,14.2396 2.12908,13.2501333 1.4548,12.2785333 C0.79916,11.3337333 0.333333333,10.2969333 0.333333333,9.33333333 C0.333333333,8.36973333 0.79916,7.33293333 1.4548,6.3882 C2.12908,5.41658667 3.08349333,4.42704 4.23921333,3.54004 Z" id="Shape"></path>
        </g>
    </g>
</svg>