<?xml version="1.0" encoding="UTF-8"?>
<svg width="24px" height="24px" viewBox="0 0 24 24" version="1.1" xmlns="http://www.w3.org/2000/svg" xmlns:xlink="http://www.w3.org/1999/xlink">
    <title>toggle left</title>
    <g id="toggle-left" stroke="none" stroke-width="1" fill="none" fill-rule="evenodd">
        <g id="Toggle-off" transform="translate(1.000000, 5.000000)" fill="#811B1A">
            <path d="M7,10.5 C5.21517,10.5 3.72218,9.137 3.53599,7.3681 C3.51034,7.1245 3.51034,6.8755 3.53599,6.6319 C3.72218,4.86302 5.21516,3.5 7,3.5 C8.78483,3.5 10.2778,4.86302 10.464,6.6319 C10.4896,6.8755 10.4896,7.1245 10.464,7.3681 C10.2778,9.137 8.78483,10.5 7,10.5 Z" id="Path" fill-rule="nonzero"></path>
            <path d="M7.07434,13.75 L14.9257,13.75 C18.2472,13.75 21.075,11.3336 21.5931,8.0527 C21.7032,7.3552 21.7032,6.6448 21.5931,5.9473 C21.075,2.6664 18.2472,0.25 14.9257,0.25 L7.07434,0.25 C3.75284,0.25 0.92497,2.6664 0.40694,5.9473 C0.29681,6.6448 0.29681,7.3552 0.40694,8.0527 C0.92497,11.3336 3.75284,13.75 7.07434,13.75 Z M7.07434,12.25 C4.49095,12.25 2.2915,10.3706 1.88859,7.8188 C1.80293,7.2763 1.80293,6.7237 1.88859,6.1812 C2.2915,3.62942 4.49095,1.75 7.07434,1.75 L14.9257,1.75 C17.5091,1.75 19.7085,3.62942 20.1114,6.1812 C20.1971,6.7237 20.1971,7.2763 20.1114,7.8188 C19.7085,10.3706 17.5091,12.25 14.9257,12.25 L7.07434,12.25 Z" id="Shape"></path>
        </g>
    </g>
</svg>