<?xml version="1.0" encoding="UTF-8"?>
<svg width="20px" height="22px" viewBox="0 0 20 22" version="1.1" xmlns="http://www.w3.org/2000/svg" xmlns:xlink="http://www.w3.org/1999/xlink">
    <title>undo</title>
    <g id="vd-v3" stroke="none" stroke-width="1" fill="none" fill-rule="evenodd">
        <g id="inc-budget-included2" transform="translate(-399.000000, -627.000000)" fill="#212121" fill-rule="nonzero">
            <g id="Group-5" transform="translate(181.000000, 620.000000)">
                <g id="Group" transform="translate(202.000000, 0.000000)">
                    <g id="Group" transform="translate(12.000000, 4.000000)">
                        <g id="Refresh" transform="translate(4.375000, 3.500000)">
                            <path d="M3.26134667,6.02323167 C3.01025667,5.95698833 2.80156333,5.78264167 2.69171,5.54733667 C2.58185667,5.31204333 2.582195,5.040105 2.69263167,4.80506833 L4.63017333,0.681613333 C4.77456,0.374336667 5.08366833,0.178313333 5.42319167,0.17873266 C5.76270333,0.179153333 6.07132167,0.375935 6.21495,0.683573333 L7.069685,2.51435333 C7.10024,2.50233667 7.13179833,2.49193 7.16426667,2.48322667 C12.2361167,1.12421167 17.4494833,4.13410667 18.8084167,9.20605 C20.1674667,14.2779 17.1575833,19.4912667 12.0857333,20.8502 C7.01377833,22.20925 1.80049333,19.1993667 0.441478333,14.1274 C0.00931,12.5146 0.01904,10.8848833 0.397541667,9.36973333 C0.514663333,8.90085 0.989683333,8.61571667 1.45852,8.73285 C1.92736833,8.84998333 2.21249,9.32505 2.09536833,9.79381667 C1.78703,11.02815 1.778525,12.3559333 2.13185,13.6745 C3.24070833,17.8129 7.49443333,20.2687333 11.6327167,19.1598167 C15.7711167,18.0510167 18.22695,13.7972333 17.11815,9.65895 C16.0273167,5.588275 11.8938167,3.145485 7.82028333,4.122055 L8.68268333,5.96923833 C8.8263,6.27687667 8.77893333,6.63982667 8.56135,6.90039 C8.34365,7.16094167 7.99493333,7.272055 7.66663333,7.18544167 L3.26134667,6.02323167 Z" id="Path"></path>
                        </g>
                    </g>
                </g>
            </g>
        </g>
    </g>
</svg>