<?xml version="1.0" encoding="UTF-8"?>
<svg width="14px" height="17px" viewBox="0 0 14 17" version="1.1" xmlns="http://www.w3.org/2000/svg" xmlns:xlink="http://www.w3.org/1999/xlink">
    <title>unlock</title>
    <g id="vd-v3" stroke="none" stroke-width="1" fill="none" fill-rule="evenodd" opacity="0.400000006">
        <g id="vehicle-mix-analysis-brand-results" transform="translate(-480.000000, -1419.000000)" fill="#888888">
            <g id="Group-30" transform="translate(318.000000, 1416.000000)">
                <g id="Group" transform="translate(159.000000, 2.000000)">
                    <g id="Unlock" transform="translate(3.000000, 1.000000)">
                        <g transform="translate(0.333333, 0.666667)">
                            <path d="M5.41666667,11.6666667 C5.41666667,10.9763333 5.97633333,10.4166667 6.66666667,10.4166667 C7.357,10.4166667 7.91666667,10.9763333 7.91666667,11.6666667 C7.91666667,12.357 7.357,12.9166667 6.66666667,12.9166667 C5.97633333,12.9166667 5.41666667,12.357 5.41666667,11.6666667 Z" id="Path" fill-rule="nonzero"></path>
                            <path d="M4.842075,1.67080833 C5.03566667,1.59371667 5.23766667,1.53958333 5.44391667,1.50953333 C6.67166667,1.33065 7.86058333,2.022175 8.31208333,3.17779167 L8.37458333,3.33780833 C8.452,3.53608333 8.50725,3.74233333 8.53933333,3.95278333 L8.71983333,5.13804167 L9.95558333,4.94983333 L9.77508333,3.764575 C9.72916667,3.46286667 9.64991667,3.16718333 9.53883333,2.882925 L9.47633333,2.72290833 C8.81316667,1.02555 7.067,0.00985 5.26375,0.2726 C4.96079167,0.316733333 4.66409167,0.396233333 4.37969167,0.509475 C2.68664167,1.18355 1.682225,2.93628333 1.95660833,4.73781667 L1.982475,4.90765833 C2.028425,5.20935833 2.10765,5.50504167 2.21870833,5.7893 L2.76383333,7.18458333 L2.44593333,7.20991667 C1.54365833,7.282 0.806908333,7.96025 0.660641667,8.8535 C0.355583333,10.7165 0.355583333,12.61675 0.660641667,14.4798333 C0.806908333,15.3730833 1.54365833,16.0513333 2.44593333,16.1233333 L3.69270833,16.2229167 C5.67216667,16.3809167 7.66116667,16.3809167 9.64058333,16.2229167 L10.8874167,16.1233333 C11.7896667,16.0513333 12.5264167,15.3730833 12.6726667,14.4798333 C12.97775,12.61675 12.97775,10.7165 12.6726667,8.8535 C12.5264167,7.96025 11.7896667,7.282 10.8874167,7.20991667 L9.64058333,7.11041667 C7.7855,6.96233333 5.92208333,6.953 4.06596667,7.0825 L3.383,5.33441667 C3.30554167,5.13614167 3.250275,4.92989167 3.218225,4.71945 L3.19235833,4.54960833 C3.00555,3.32306667 3.68939167,2.12974167 4.842075,1.67080833 Z M9.54116667,8.35641667 C7.62783333,8.20375 5.7055,8.20375 3.79218333,8.35641667 L2.54540833,8.456 C2.2163,8.48225 1.94756667,8.72966667 1.89421667,9.0555 C1.61105833,10.78475 1.61105833,12.5485833 1.89421667,14.2778333 C1.94756667,14.6036667 2.2163,14.8510833 2.54540833,14.8773333 L3.79218333,14.9768333 C5.70541667,15.1295833 7.62783333,15.1295833 9.54116667,14.9768333 L10.7879167,14.8773333 C11.117,14.8510833 11.38575,14.6036667 11.4390833,14.2778333 C11.72225,12.5485833 11.72225,10.78475 11.4390833,9.0555 C11.38575,8.72966667 11.117,8.48225 10.7879167,8.456 L9.54116667,8.35641667 Z" id="Shape"></path>
                        </g>
                    </g>
                </g>
            </g>
        </g>
    </g>
</svg>