<?xml version="1.0" encoding="UTF-8"?>
<svg width="20px" height="22px" viewBox="0 0 20 22" version="1.1" xmlns="http://www.w3.org/2000/svg" xmlns:xlink="http://www.w3.org/1999/xlink">
    <title>upload</title>
    <g id="vd-v3" stroke="none" stroke-width="1" fill="none" fill-rule="evenodd">
        <g id="sim-scenario-options" transform="translate(-1239.000000, -1425.000000)" fill="#212121">
            <g id="Group-4" transform="translate(1228.000000, 1415.000000)">
                <g id="Group" transform="translate(7.000000, 7.000000)">
                    <g id="Upload" transform="translate(4.666667, 3.500000)">
                        <path d="M7.86088333,15.8985167 C6.958315,15.8985167 6.20544167,15.2087833 6.12663333,14.3096333 C5.96184167,12.4297833 5.920145,10.54165 6.00164833,8.65713333 C5.90326333,8.65048333 5.80490167,8.6436 5.70655167,8.63648333 L3.96874333,8.50978333 C2.85801833,8.42881667 2.23710667,7.19030667 2.83676167,6.25186333 C4.11565,4.250435 6.45975167,2.010365 8.3888,0.62468 C8.95323333,0.219205 9.71343333,0.219205 10.2779833,0.62468 C12.20695,2.010365 14.5510167,4.25042333 15.8299167,6.25186333 C16.4295833,7.19030667 15.8086833,8.42881667 14.6980167,8.50978333 L12.96015,8.63648333 C12.8618,8.6436 12.76345,8.65048333 12.6651,8.65713333 C12.7465333,10.54165 12.7048833,12.4297833 12.5400333,14.3096333 C12.4612833,15.2087833 11.7084333,15.8985167 10.8059,15.8985167 L7.86088333,15.8985167 Z M7.79508333,7.88965333 C7.66243333,9.97476667 7.68716667,12.06695 7.86916667,14.1485167 L10.7975,14.1485167 C10.9795,12.06695 11.00435,9.97476667 10.8717,7.88965333 C10.8567667,7.65588833 10.9362167,7.42592667 11.0923167,7.25123 C11.2483,7.07652167 11.4678667,6.971685 11.7017833,6.96015833 C12.0790833,6.94157333 12.45615,6.91854333 12.8329833,6.89108 L14.0950833,6.79907667 C12.97555,5.15022667 11.5738,3.71026833 9.95318333,2.54611 L9.33333333,2.10086333 L8.71348333,2.54611 C7.09286667,3.71026833 5.69115167,5.15023833 4.57167667,6.79907667 L5.83377667,6.89108 C6.21059833,6.91854333 6.58765333,6.94157333 6.96488333,6.96015833 C7.1988,6.971685 7.41836667,7.07652167 7.57446667,7.25123 C7.73045,7.42592667 7.8099,7.65588833 7.79508333,7.88965333 Z" id="Shape"></path>
                        <path d="M2.04166667,16.3333333 C2.04166667,15.8501 1.64991167,15.4583333 1.16666667,15.4583333 C0.683421667,15.4583333 0.291666667,15.8501 0.291666667,16.3333333 L0.291666667,18.6666667 C0.291666667,19.79425 1.20575,20.7083333 2.33333333,20.7083333 L16.3333333,20.7083333 C17.4609167,20.7083333 18.375,19.79425 18.375,18.6666667 L18.375,16.3333333 C18.375,15.8501 17.9832333,15.4583333 17.5,15.4583333 C17.0167667,15.4583333 16.625,15.8501 16.625,16.3333333 L16.625,18.6666667 C16.625,18.8277833 16.49445,18.9583333 16.3333333,18.9583333 L2.33333333,18.9583333 C2.17225167,18.9583333 2.04166667,18.8277833 2.04166667,18.6666667 L2.04166667,16.3333333 Z" id="Path" fill-rule="nonzero"></path>
                    </g>
                </g>
            </g>
        </g>
    </g>
</svg>