<?xml version="1.0" encoding="UTF-8"?>
<svg width="24px" height="21px" viewBox="0 0 24 21" version="1.1" xmlns="http://www.w3.org/2000/svg" xmlns:xlink="http://www.w3.org/1999/xlink">
    <title>user management</title>
    <g id="vd-v3" stroke="none" stroke-width="1" fill="none" fill-rule="evenodd">
        <g id="menu" transform="translate(-1150.000000, -257.000000)" fill="#212121">
            <g id="Group-15" transform="translate(1147.000000, 254.000000)">
                <g id="User-plus" transform="translate(3.791667, 3.791667)">
                    <path d="M4.08333333,4.95833333 C4.08333333,2.21992167 6.303255,0 9.04166667,0 C11.7800667,0 14,2.21992167 14,4.95833333 C14,7.696745 11.7800667,9.91666667 9.04166667,9.91666667 C6.303255,9.91666667 4.08333333,7.696745 4.08333333,4.95833333 Z M9.04166667,1.75 C7.26975667,1.75 5.83333333,3.18642333 5.83333333,4.95833333 C5.83333333,6.73024333 7.26975667,8.16666667 9.04166667,8.16666667 C10.8136,8.16666667 12.25,6.73024333 12.25,4.95833333 C12.25,3.18642333 10.8136,1.75 9.04166667,1.75 Z" id="Shape"></path>
                    <path d="M0,16.0416667 C0,13.6253833 1.95875167,11.6666667 4.375,11.6666667 L4.77268167,11.6666667 C4.98792,11.6666667 5.201805,11.7007333 5.406415,11.7674667 L6.41618833,12.0972833 C8.12221667,12.65425 9.96111667,12.65425 11.6671333,12.0972833 L12.6768833,11.7674667 C12.8815167,11.7007333 13.0953667,11.6666667 13.3106167,11.6666667 L13.7083333,11.6666667 C16.1246167,11.6666667 18.0833333,13.6253833 18.0833333,16.0416667 L18.0833333,17.4280167 C18.0833333,18.30675 17.44645,19.0559833 16.57915,19.1976167 C11.5872167,20.01265 6.49611667,20.01265 1.50414833,19.1976167 C0.63686,19.0559833 0,18.30675 0,17.4280167 L0,16.0416667 Z M4.375,13.4166667 C2.92525333,13.4166667 1.75,14.5919667 1.75,16.0416667 L1.75,17.4280167 C1.75,17.4491333 1.765295,17.4671 1.78613167,17.4704833 C6.59134,18.2550667 11.4920167,18.2550667 16.2971667,17.4704833 C16.31805,17.4671 16.3333333,17.4491333 16.3333333,17.4280167 L16.3333333,16.0416667 C16.3333333,14.5919667 15.1580333,13.4166667 13.7083333,13.4166667 L13.3106167,13.4166667 C13.2799333,13.4166667 13.2493667,13.4215667 13.2200833,13.4310167 L12.2103333,13.7608333 C10.1514,14.4330667 7.93193333,14.4330667 5.87297667,13.7608333 L4.863215,13.4310167 C4.83399,13.4215667 4.80342333,13.4166667 4.77268167,13.4166667 L4.375,13.4166667 Z" id="Shape"></path>
                    <path d="M18.9583333,3.5 C19.4415667,3.5 19.8333333,3.891755 19.8333333,4.375 L19.8333333,6.41666667 L21.875,6.41666667 C22.3582333,6.41666667 22.75,6.80842167 22.75,7.29166667 C22.75,7.77491167 22.3582333,8.16666667 21.875,8.16666667 L19.8333333,8.16666667 L19.8333333,10.2083333 C19.8333333,10.6915667 19.4415667,11.0833333 18.9583333,11.0833333 C18.4751,11.0833333 18.0833333,10.6915667 18.0833333,10.2083333 L18.0833333,8.16666667 L16.0416667,8.16666667 C15.5584333,8.16666667 15.1666667,7.77491167 15.1666667,7.29166667 C15.1666667,6.80842167 15.5584333,6.41666667 16.0416667,6.41666667 L18.0833333,6.41666667 L18.0833333,4.375 C18.0833333,3.891755 18.4751,3.5 18.9583333,3.5 Z" id="Path" fill-rule="nonzero"></path>
                </g>
            </g>
        </g>
    </g>
</svg>