<?xml version="1.0" encoding="UTF-8"?>
<svg width="24px" height="22px" viewBox="0 0 24 22" version="1.1" xmlns="http://www.w3.org/2000/svg" xmlns:xlink="http://www.w3.org/1999/xlink">
    <title>warning</title>
    <g id="vd-v3" stroke="none" stroke-width="1" fill="none" fill-rule="evenodd">
        <g id="vehicle-mix-analysis-brand-results" transform="translate(-1155.000000, -941.000000)" fill="#811B1A">
            <g id="Group-32" transform="translate(1153.000000, 935.000000)">
                <g id="Group" transform="translate(0.000000, 3.000000)">
                    <g id="Info-triangle" transform="translate(2.333333, 2.333333)">
                        <path d="M12.8333333,8.166655 C12.8333333,8.81098167 12.3110167,9.33332167 11.6666667,9.33332167 C11.0223167,9.33332167 10.5,8.81098167 10.5,8.166655 C10.5,7.52231667 11.0223167,6.99998833 11.6666667,6.99998833 C12.3110167,6.99998833 12.8333333,7.52231667 12.8333333,8.166655 Z" id="Path" fill-rule="nonzero"></path>
                        <path d="M11.6666667,11.375 C12.1499,11.375 12.5416667,11.7667667 12.5416667,12.25 L12.5416667,18.0833333 C12.5416667,18.5665667 12.1499,18.9583333 11.6666667,18.9583333 C11.1834333,18.9583333 10.7916667,18.5665667 10.7916667,18.0833333 L10.7916667,12.25 C10.7916667,11.7667667 11.1834333,11.375 11.6666667,11.375 Z" id="Path" fill-rule="nonzero"></path>
                        <path d="M14.31535,2.32472333 C13.0414667,0.460786667 10.2918667,0.460775 9.01787833,2.32472333 L8.51397167,3.06199833 C5.356925,7.68107667 2.64447167,12.5888 0.412953333,17.71945 L0.307696667,17.9614167 C-0.478695,19.7695167 0.709391667,21.8225 2.66886667,22.0414833 C8.64876833,22.7098667 14.6844833,22.7098667 20.6644667,22.0414833 C22.6238833,21.8225 23.8120167,19.7695167 23.0255667,17.9614167 L22.9203333,17.71945 C20.68885,12.5888 17.97635,7.68108833 14.81935,3.06199833 L14.31535,2.32472333 Z M10.4626667,3.31220167 C11.0416833,2.46495667 12.2915333,2.46495667 12.8706667,3.31220167 L13.37455,4.04947667 C16.46925,8.57733333 19.1280833,13.3880833 21.3155833,18.41735 L21.4208167,18.6594333 C21.73745,19.3874333 21.259,20.2141333 20.4701,20.3023333 C14.6193833,20.95625 8.71396167,20.95625 2.86323333,20.3023333 C2.07422833,20.2141333 1.595825,19.3874333 1.91248167,18.6594333 L2.01772667,18.41735 C4.20516833,13.3880833 6.86406,8.57732167 9.95878333,4.04947667 L10.4626667,3.31220167 Z" id="Shape"></path>
                    </g>
                </g>
            </g>
        </g>
    </g>
</svg>