<?xml version="1.0" encoding="UTF-8"?>
<svg width="24px" height="24px" viewBox="0 0 24 24" version="1.1" xmlns="http://www.w3.org/2000/svg" xmlns:xlink="http://www.w3.org/1999/xlink">
    <title>world2</title>
    <g id="vd-v3" stroke="none" stroke-width="1" fill="none" fill-rule="evenodd">
        <g id="User-Management" transform="translate(-1187.000000, -20.000000)">
            <g id="Group-15" transform="translate(1178.000000, 11.000000)">
                <g id="Group" transform="translate(7.000000, 7.000000)">
                    <polygon id="Path" points="0 0 28 0 28 28 0 28"></polygon>
                    <path d="M13.9883333,2.33333333 C7.54833333,2.33333333 2.33333333,7.56 2.33333333,14 C2.33333333,20.44 7.54833333,25.6666667 13.9883333,25.6666667 C20.44,25.6666667 25.6666667,20.44 25.6666667,14 C25.6666667,7.56 20.44,2.33333333 13.9883333,2.33333333 Z M22.0733333,9.33333333 L18.6316667,9.33333333 C18.2583333,7.875 17.7216667,6.475 17.0216667,5.18 C19.1683333,5.915 20.9533333,7.40833333 22.0733333,9.33333333 Z M14,4.71333333 C14.9683333,6.11333333 15.7266667,7.665 16.2283333,9.33333333 L11.7716667,9.33333333 C12.2733333,7.665 13.0316667,6.11333333 14,4.71333333 Z M4.97,16.3333333 C4.78333333,15.5866667 4.66666667,14.805 4.66666667,14 C4.66666667,13.195 4.78333333,12.4133333 4.97,11.6666667 L8.91333333,11.6666667 C8.82,12.4366667 8.75,13.2066667 8.75,14 C8.75,14.7933333 8.82,15.5633333 8.91333333,16.3333333 L4.97,16.3333333 Z M5.92666667,18.6666667 L9.36833333,18.6666667 C9.74166667,20.125 10.2783333,21.525 10.9783333,22.82 C8.83166667,22.085 7.04666667,20.6033333 5.92666667,18.6666667 L5.92666667,18.6666667 Z M9.36833333,9.33333333 L5.92666667,9.33333333 C7.04666667,7.39666667 8.83166667,5.915 10.9783333,5.18 C10.2783333,6.475 9.74166667,7.875 9.36833333,9.33333333 L9.36833333,9.33333333 Z M14,23.2866667 C13.0316667,21.8866667 12.2733333,20.335 11.7716667,18.6666667 L16.2283333,18.6666667 C15.7266667,20.335 14.9683333,21.8866667 14,23.2866667 Z M16.73,16.3333333 L11.27,16.3333333 C11.165,15.5633333 11.0833333,14.7933333 11.0833333,14 C11.0833333,13.2066667 11.165,12.425 11.27,11.6666667 L16.73,11.6666667 C16.835,12.425 16.9166667,13.2066667 16.9166667,14 C16.9166667,14.7933333 16.835,15.5633333 16.73,16.3333333 Z M17.0216667,22.82 C17.7216667,21.525 18.2583333,20.125 18.6316667,18.6666667 L22.0733333,18.6666667 C20.9533333,20.5916667 19.1683333,22.085 17.0216667,22.82 L17.0216667,22.82 Z M19.0866667,16.3333333 C19.18,15.5633333 19.25,14.7933333 19.25,14 C19.25,13.2066667 19.18,12.4366667 19.0866667,11.6666667 L23.03,11.6666667 C23.2166667,12.4133333 23.3333333,13.195 23.3333333,14 C23.3333333,14.805 23.2166667,15.5866667 23.03,16.3333333 L19.0866667,16.3333333 Z" id="Shape" fill="#212121" fill-rule="nonzero"></path>
                </g>
            </g>
        </g>
    </g>
</svg>