<svg width="50" height="50" viewBox="0 0 50 50" fill="none" xmlns="http://www.w3.org/2000/svg">
<path fill-rule="evenodd" clip-rule="evenodd" d="M24.9998 0C38.8071 0 50 11.1925 50 24.9994C50 38.8067 38.8071 49.9992 24.9998 49.9992C11.1929 49.9996 0 38.8067 0 24.9994C0 11.1925 11.1929 0 24.9998 0ZM33.2513 14.7403C33.8059 14.1857 34.7047 14.1857 35.2597 14.7403C35.8143 15.2949 35.8143 16.1941 35.2597 16.7487L27.0078 24.9994L35.2593 33.2505C35.8139 33.8051 35.8139 34.7043 35.2593 35.2593C34.7047 35.8135 33.8059 35.8135 33.2509 35.2593L24.9998 27.0082L16.7487 35.2593C16.1945 35.8135 15.2949 35.8135 14.7403 35.2593C14.1857 34.7047 14.1857 33.8055 14.7403 33.2505L22.9914 24.9994L14.7403 16.7487C14.1857 16.1941 14.1857 15.2949 14.7403 14.7403C15.2949 14.1857 16.1941 14.1857 16.7487 14.7403L24.9998 22.9914L33.2513 14.7403Z" fill="#F84C4C"/>
</svg>
